<svg width="244" height="60" viewBox="0 0 244 60" fill="none" xmlns="http://www.w3.org/2000/svg">
<path d="M48.88 38.68H37.76L35.92 44H30.04L40.08 16.04H46.6L56.64 44H50.72L48.88 38.68ZM47.36 34.2L43.32 22.52L39.28 34.2H47.36ZM65.9928 25.08C66.7128 24.0133 67.6995 23.1467 68.9528 22.48C70.2328 21.8133 71.6861 21.48 73.3128 21.48C75.2061 21.48 76.9128 21.9467 78.4328 22.88C79.9795 23.8133 81.1928 25.1467 82.0728 26.88C82.9795 28.5867 83.4328 30.5733 83.4328 32.84C83.4328 35.1067 82.9795 37.12 82.0728 38.88C81.1928 40.6133 79.9795 41.96 78.4328 42.92C76.9128 43.88 75.2061 44.36 73.3128 44.36C71.6595 44.36 70.2061 44.04 68.9528 43.4C67.7261 42.7333 66.7395 41.88 65.9928 40.84V44H60.3928V14.4H65.9928V25.08ZM77.7128 32.84C77.7128 31.5067 77.4328 30.36 76.8728 29.4C76.3395 28.4133 75.6195 27.6667 74.7128 27.16C73.8328 26.6533 72.8728 26.4 71.8328 26.4C70.8195 26.4 69.8595 26.6667 68.9528 27.2C68.0728 27.7067 67.3528 28.4533 66.7928 29.44C66.2595 30.4267 65.9928 31.5867 65.9928 32.92C65.9928 34.2533 66.2595 35.4133 66.7928 36.4C67.3528 37.3867 68.0728 38.1467 68.9528 38.68C69.8595 39.1867 70.8195 39.44 71.8328 39.44C72.8728 39.44 73.8328 39.1733 74.7128 38.64C75.6195 38.1067 76.3395 37.3467 76.8728 36.36C77.4328 35.3733 77.7128 34.2 77.7128 32.84ZM97.3422 44.36C95.2089 44.36 93.2889 43.8933 91.5822 42.96C89.8755 42 88.5289 40.6533 87.5422 38.92C86.5822 37.1867 86.1022 35.1867 86.1022 32.92C86.1022 30.6533 86.5955 28.6533 87.5822 26.92C88.5955 25.1867 89.9689 23.8533 91.7022 22.92C93.4355 21.96 95.3689 21.48 97.5022 21.48C99.6355 21.48 101.569 21.96 103.302 22.92C105.036 23.8533 106.396 25.1867 107.382 26.92C108.396 28.6533 108.902 30.6533 108.902 32.92C108.902 35.1867 108.382 37.1867 107.342 38.92C106.329 40.6533 104.942 42 103.182 42.96C101.449 43.8933 99.5022 44.36 97.3422 44.36ZM97.3422 39.48C98.3555 39.48 99.3022 39.24 100.182 38.76C101.089 38.2533 101.809 37.5067 102.342 36.52C102.876 35.5333 103.142 34.3333 103.142 32.92C103.142 30.8133 102.582 29.2 101.462 28.08C100.369 26.9333 99.0222 26.36 97.4222 26.36C95.8222 26.36 94.4755 26.9333 93.3822 28.08C92.3155 29.2 91.7822 30.8133 91.7822 32.92C91.7822 35.0267 92.3022 36.6533 93.3422 37.8C94.4089 38.92 95.7422 39.48 97.3422 39.48ZM133.93 21.84V44H128.29V41.2C127.57 42.16 126.623 42.92 125.45 43.48C124.303 44.0133 123.05 44.28 121.69 44.28C119.957 44.28 118.423 43.92 117.09 43.2C115.757 42.4533 114.703 41.3733 113.93 39.96C113.183 38.52 112.81 36.8133 112.81 34.84V21.84H118.41V34.04C118.41 35.8 118.85 37.16 119.73 38.12C120.61 39.0533 121.81 39.52 123.33 39.52C124.877 39.52 126.09 39.0533 126.97 38.12C127.85 37.16 128.29 35.8 128.29 34.04V21.84H133.93ZM145.975 26.44V37.16C145.975 37.9067 146.149 38.4533 146.495 38.8C146.869 39.12 147.482 39.28 148.335 39.28H150.935V44H147.415C142.695 44 140.335 41.7067 140.335 37.12V26.44H137.695V21.84H140.335V16.36H145.975V21.84H150.935V26.44H145.975ZM194.934 16.08V44H189.334V25.84L181.854 44H177.614L170.094 25.84V44H164.494V16.08H170.854L179.734 36.84L188.614 16.08H194.934ZM221.071 32.44C221.071 33.24 221.018 33.96 220.911 34.6H204.711C204.844 36.2 205.404 37.4533 206.391 38.36C207.378 39.2667 208.591 39.72 210.031 39.72C212.111 39.72 213.591 38.8267 214.471 37.04H220.511C219.871 39.1733 218.644 40.9333 216.831 42.32C215.018 43.68 212.791 44.36 210.151 44.36C208.018 44.36 206.098 43.8933 204.391 42.96C202.711 42 201.391 40.6533 200.431 38.92C199.498 37.1867 199.031 35.1867 199.031 32.92C199.031 30.6267 199.498 28.6133 200.431 26.88C201.364 25.1467 202.671 23.8133 204.351 22.88C206.031 21.9467 207.964 21.48 210.151 21.48C212.258 21.48 214.138 21.9333 215.791 22.84C217.471 23.7467 218.764 25.04 219.671 26.72C220.604 28.3733 221.071 30.28 221.071 32.44ZM215.271 30.84C215.244 29.4 214.724 28.2533 213.711 27.4C212.698 26.52 211.458 26.08 209.991 26.08C208.604 26.08 207.431 26.5067 206.471 27.36C205.538 28.1867 204.964 29.3467 204.751 30.84H215.271Z" fill="#196046"/>
<line y1="59.5" x2="244" y2="59.5" stroke="black"/>
</svg>
