<svg width="244" height="60" viewBox="0 0 244 60" fill="none" xmlns="http://www.w3.org/2000/svg">
<path d="M31.36 20.6V27.6H40.76V32.04H31.36V39.44H41.96V44H25.76V16.04H41.96V20.6H31.36ZM45.6091 32.84C45.6091 30.6 46.0491 28.6133 46.9291 26.88C47.8357 25.1467 49.0624 23.8133 50.6091 22.88C52.1557 21.9467 53.8757 21.48 55.7691 21.48C57.2091 21.48 58.5824 21.8 59.8891 22.44C61.1957 23.0533 62.2357 23.88 63.0091 24.92V14.4H68.6891V44H63.0091V40.72C62.3157 41.8133 61.3424 42.6933 60.0891 43.36C58.8357 44.0267 57.3824 44.36 55.7291 44.36C53.8624 44.36 52.1557 43.88 50.6091 42.92C49.0624 41.96 47.8357 40.6133 46.9291 38.88C46.0491 37.12 45.6091 35.1067 45.6091 32.84ZM63.0491 32.92C63.0491 31.56 62.7824 30.4 62.2491 29.44C61.7157 28.4533 60.9957 27.7067 60.0891 27.2C59.1824 26.6667 58.2091 26.4 57.1691 26.4C56.1291 26.4 55.1691 26.6533 54.2891 27.16C53.4091 27.6667 52.6891 28.4133 52.1291 29.4C51.5957 30.36 51.3291 31.5067 51.3291 32.84C51.3291 34.1733 51.5957 35.3467 52.1291 36.36C52.6891 37.3467 53.4091 38.1067 54.2891 38.64C55.1957 39.1733 56.1557 39.44 57.1691 39.44C58.2091 39.44 59.1824 39.1867 60.0891 38.68C60.9957 38.1467 61.7157 37.4 62.2491 36.44C62.7824 35.4533 63.0491 34.28 63.0491 32.92ZM95.0784 21.84V44H89.4384V41.2C88.7184 42.16 87.7718 42.92 86.5984 43.48C85.4518 44.0133 84.1984 44.28 82.8384 44.28C81.1051 44.28 79.5718 43.92 78.2384 43.2C76.9051 42.4533 75.8518 41.3733 75.0784 39.96C74.3318 38.52 73.9584 36.8133 73.9584 34.84V21.84H79.5584V34.04C79.5584 35.8 79.9984 37.16 80.8784 38.12C81.7584 39.0533 82.9584 39.52 84.4784 39.52C86.0251 39.52 87.2384 39.0533 88.1184 38.12C88.9984 37.16 89.4384 35.8 89.4384 34.04V21.84H95.0784ZM99.1637 32.92C99.1637 30.6267 99.6304 28.6267 100.564 26.92C101.497 25.1867 102.79 23.8533 104.444 22.92C106.097 21.96 107.99 21.48 110.124 21.48C112.87 21.48 115.137 22.1733 116.924 23.56C118.737 24.92 119.95 26.84 120.564 29.32H114.524C114.204 28.36 113.657 27.6133 112.884 27.08C112.137 26.52 111.204 26.24 110.084 26.24C108.484 26.24 107.217 26.8267 106.284 28C105.35 29.1467 104.884 30.7867 104.884 32.92C104.884 35.0267 105.35 36.6667 106.284 37.84C107.217 38.9867 108.484 39.56 110.084 39.56C112.35 39.56 113.83 38.5467 114.524 36.52H120.564C119.95 38.92 118.737 40.8267 116.924 42.24C115.11 43.6533 112.844 44.36 110.124 44.36C107.99 44.36 106.097 43.8933 104.444 42.96C102.79 42 101.497 40.6667 100.564 38.96C99.6304 37.2267 99.1637 35.2133 99.1637 32.92ZM123.226 32.84C123.226 30.6 123.666 28.6133 124.546 26.88C125.453 25.1467 126.666 23.8133 128.186 22.88C129.733 21.9467 131.453 21.48 133.346 21.48C135 21.48 136.44 21.8133 137.666 22.48C138.92 23.1467 139.92 23.9867 140.666 25V21.84H146.306V44H140.666V40.76C139.946 41.8 138.946 42.6667 137.666 43.36C136.413 44.0267 134.96 44.36 133.306 44.36C131.44 44.36 129.733 43.88 128.186 42.92C126.666 41.96 125.453 40.6133 124.546 38.88C123.666 37.12 123.226 35.1067 123.226 32.84ZM140.666 32.92C140.666 31.56 140.4 30.4 139.866 29.44C139.333 28.4533 138.613 27.7067 137.706 27.2C136.8 26.6667 135.826 26.4 134.786 26.4C133.746 26.4 132.786 26.6533 131.906 27.16C131.026 27.6667 130.306 28.4133 129.746 29.4C129.213 30.36 128.946 31.5067 128.946 32.84C128.946 34.1733 129.213 35.3467 129.746 36.36C130.306 37.3467 131.026 38.1067 131.906 38.64C132.813 39.1733 133.773 39.44 134.786 39.44C135.826 39.44 136.8 39.1867 137.706 38.68C138.613 38.1467 139.333 37.4 139.866 36.44C140.4 35.4533 140.666 34.28 140.666 32.92ZM158.296 26.44V37.16C158.296 37.9067 158.469 38.4533 158.816 38.8C159.189 39.12 159.802 39.28 160.656 39.28H163.256V44H159.736C155.016 44 152.656 41.7067 152.656 37.12V26.44H150.016V21.84H152.656V16.36H158.296V21.84H163.256V26.44H158.296ZM170.123 19.2C169.137 19.2 168.31 18.8933 167.643 18.28C167.003 17.64 166.683 16.8533 166.683 15.92C166.683 14.9867 167.003 14.2133 167.643 13.6C168.31 12.96 169.137 12.64 170.123 12.64C171.11 12.64 171.923 12.96 172.563 13.6C173.23 14.2133 173.563 14.9867 173.563 15.92C173.563 16.8533 173.23 17.64 172.563 18.28C171.923 18.8933 171.11 19.2 170.123 19.2ZM172.883 21.84V44H167.283V21.84H172.883ZM188.256 44.36C186.123 44.36 184.203 43.8933 182.496 42.96C180.79 42 179.443 40.6533 178.456 38.92C177.496 37.1867 177.016 35.1867 177.016 32.92C177.016 30.6533 177.51 28.6533 178.496 26.92C179.51 25.1867 180.883 23.8533 182.616 22.92C184.35 21.96 186.283 21.48 188.416 21.48C190.55 21.48 192.483 21.96 194.216 22.92C195.95 23.8533 197.31 25.1867 198.296 26.92C199.31 28.6533 199.816 30.6533 199.816 32.92C199.816 35.1867 199.296 37.1867 198.256 38.92C197.243 40.6533 195.856 42 194.096 42.96C192.363 43.8933 190.416 44.36 188.256 44.36ZM188.256 39.48C189.27 39.48 190.216 39.24 191.096 38.76C192.003 38.2533 192.723 37.5067 193.256 36.52C193.79 35.5333 194.056 34.3333 194.056 32.92C194.056 30.8133 193.496 29.2 192.376 28.08C191.283 26.9333 189.936 26.36 188.336 26.36C186.736 26.36 185.39 26.9333 184.296 28.08C183.23 29.2 182.696 30.8133 182.696 32.92C182.696 35.0267 183.216 36.6533 184.256 37.8C185.323 38.92 186.656 39.48 188.256 39.48ZM216.204 21.52C218.844 21.52 220.977 22.36 222.604 24.04C224.231 25.6933 225.044 28.0133 225.044 31V44H219.444V31.76C219.444 30 219.004 28.6533 218.124 27.72C217.244 26.76 216.044 26.28 214.524 26.28C212.977 26.28 211.751 26.76 210.844 27.72C209.964 28.6533 209.524 30 209.524 31.76V44H203.924V21.84H209.524V24.6C210.271 23.64 211.217 22.8933 212.364 22.36C213.537 21.8 214.817 21.52 216.204 21.52Z" fill="#196046"/>
<line y1="55.5" x2="244" y2="55.5" stroke="black"/>
</svg>
