<svg width="348" height="524" viewBox="0 0 348 524" fill="none" xmlns="http://www.w3.org/2000/svg">
<rect width="348" height="464" rx="15" fill="#8BD19E"/>
<path d="M73.324 300.242V306.416C73.324 307.284 73.534 307.928 73.954 308.348C74.3833 308.768 74.976 308.978 75.732 308.978C76.4787 308.978 77.062 308.768 77.482 308.348C77.9113 307.928 78.126 307.284 78.126 306.416V300.242H79.4V306.402C79.4 307.214 79.2367 307.9 78.91 308.46C78.5833 309.011 78.14 309.421 77.58 309.692C77.0293 309.963 76.4087 310.098 75.718 310.098C75.0273 310.098 74.402 309.963 73.842 309.692C73.2913 309.421 72.8527 309.011 72.526 308.46C72.2087 307.9 72.05 307.214 72.05 306.402V300.242H73.324ZM84.2413 310.126C83.6533 310.126 83.1259 310.028 82.6593 309.832C82.1926 309.627 81.8239 309.347 81.5533 308.992C81.2826 308.628 81.1333 308.213 81.1053 307.746H82.4213C82.4586 308.129 82.6359 308.441 82.9533 308.684C83.2799 308.927 83.7046 309.048 84.2273 309.048C84.7126 309.048 85.0953 308.941 85.3753 308.726C85.6553 308.511 85.7953 308.241 85.7953 307.914C85.7953 307.578 85.6459 307.331 85.3473 307.172C85.0486 307.004 84.5866 306.841 83.9613 306.682C83.3919 306.533 82.9253 306.383 82.5613 306.234C82.2066 306.075 81.8986 305.847 81.6373 305.548C81.3853 305.24 81.2593 304.839 81.2593 304.344C81.2593 303.952 81.3759 303.593 81.6093 303.266C81.8426 302.939 82.1739 302.683 82.6033 302.496C83.0326 302.3 83.5226 302.202 84.0733 302.202C84.9226 302.202 85.6086 302.417 86.1313 302.846C86.6539 303.275 86.9339 303.863 86.9713 304.61H85.6973C85.6693 304.209 85.5059 303.887 85.2073 303.644C84.9179 303.401 84.5259 303.28 84.0313 303.28C83.5739 303.28 83.2099 303.378 82.9393 303.574C82.6686 303.77 82.5333 304.027 82.5333 304.344C82.5333 304.596 82.6126 304.806 82.7713 304.974C82.9393 305.133 83.1446 305.263 83.3873 305.366C83.6393 305.459 83.9846 305.567 84.4233 305.688C84.9739 305.837 85.4219 305.987 85.7673 306.136C86.1126 306.276 86.4066 306.491 86.6493 306.78C86.9013 307.069 87.0319 307.447 87.0413 307.914C87.0413 308.334 86.9246 308.712 86.6913 309.048C86.4579 309.384 86.1266 309.65 85.6973 309.846C85.2773 310.033 84.7919 310.126 84.2413 310.126ZM95.8397 305.87C95.8397 306.113 95.8257 306.369 95.7977 306.64H89.6657C89.7124 307.396 89.9691 307.989 90.4357 308.418C90.9117 308.838 91.4857 309.048 92.1577 309.048C92.7084 309.048 93.1657 308.922 93.5297 308.67C93.9031 308.409 94.1644 308.063 94.3137 307.634H95.6857C95.4804 308.371 95.0697 308.973 94.4537 309.44C93.8377 309.897 93.0724 310.126 92.1577 310.126C91.4297 310.126 90.7764 309.963 90.1977 309.636C89.6284 309.309 89.1804 308.847 88.8537 308.25C88.5271 307.643 88.3637 306.943 88.3637 306.15C88.3637 305.357 88.5224 304.661 88.8397 304.064C89.1571 303.467 89.6004 303.009 90.1697 302.692C90.7484 302.365 91.4111 302.202 92.1577 302.202C92.8857 302.202 93.5297 302.361 94.0897 302.678C94.6497 302.995 95.0791 303.434 95.3777 303.994C95.6857 304.545 95.8397 305.17 95.8397 305.87ZM94.5237 305.604C94.5237 305.119 94.4164 304.703 94.2017 304.358C93.9871 304.003 93.6931 303.737 93.3197 303.56C92.9557 303.373 92.5497 303.28 92.1017 303.28C91.4577 303.28 90.9071 303.485 90.4497 303.896C90.0017 304.307 89.7451 304.876 89.6797 305.604H94.5237ZM98.7954 303.574C99.0194 303.135 99.3367 302.795 99.7474 302.552C100.167 302.309 100.676 302.188 101.273 302.188V303.504H100.937C99.5094 303.504 98.7954 304.279 98.7954 305.828V310H97.5214V302.328H98.7954V303.574ZM107.75 300.242V310H106.476V300.242H107.75ZM113.66 302.188C114.593 302.188 115.349 302.473 115.928 303.042C116.506 303.602 116.796 304.414 116.796 305.478V310H115.536V305.66C115.536 304.895 115.344 304.311 114.962 303.91C114.579 303.499 114.056 303.294 113.394 303.294C112.722 303.294 112.185 303.504 111.784 303.924C111.392 304.344 111.196 304.955 111.196 305.758V310H109.922V302.328H111.196V303.42C111.448 303.028 111.788 302.725 112.218 302.51C112.656 302.295 113.137 302.188 113.66 302.188ZM120.431 303.378V307.9C120.431 308.273 120.51 308.539 120.669 308.698C120.827 308.847 121.103 308.922 121.495 308.922H122.433V310H121.285C120.575 310 120.043 309.837 119.689 309.51C119.334 309.183 119.157 308.647 119.157 307.9V303.378H118.163V302.328H119.157V300.396H120.431V302.328H122.433V303.378H120.431ZM130.976 305.87C130.976 306.113 130.962 306.369 130.934 306.64H124.802C124.849 307.396 125.106 307.989 125.572 308.418C126.048 308.838 126.622 309.048 127.294 309.048C127.845 309.048 128.302 308.922 128.666 308.67C129.04 308.409 129.301 308.063 129.45 307.634H130.822C130.617 308.371 130.206 308.973 129.59 309.44C128.974 309.897 128.209 310.126 127.294 310.126C126.566 310.126 125.913 309.963 125.334 309.636C124.765 309.309 124.317 308.847 123.99 308.25C123.664 307.643 123.5 306.943 123.5 306.15C123.5 305.357 123.659 304.661 123.976 304.064C124.294 303.467 124.737 303.009 125.306 302.692C125.885 302.365 126.548 302.202 127.294 302.202C128.022 302.202 128.666 302.361 129.226 302.678C129.786 302.995 130.216 303.434 130.514 303.994C130.822 304.545 130.976 305.17 130.976 305.87ZM129.66 305.604C129.66 305.119 129.553 304.703 129.338 304.358C129.124 304.003 128.83 303.737 128.456 303.56C128.092 303.373 127.686 303.28 127.238 303.28C126.594 303.28 126.044 303.485 125.586 303.896C125.138 304.307 124.882 304.876 124.816 305.604H129.66ZM133.932 303.574C134.156 303.135 134.473 302.795 134.884 302.552C135.304 302.309 135.813 302.188 136.41 302.188V303.504H136.074C134.646 303.504 133.932 304.279 133.932 305.828V310H132.658V302.328H133.932V303.574ZM141.003 303.378H139.393V310H138.119V303.378H137.125V302.328H138.119V301.782C138.119 300.923 138.338 300.298 138.777 299.906C139.225 299.505 139.939 299.304 140.919 299.304V300.368C140.359 300.368 139.962 300.48 139.729 300.704C139.505 300.919 139.393 301.278 139.393 301.782V302.328H141.003V303.378ZM142.012 306.136C142.012 305.352 142.171 304.666 142.488 304.078C142.805 303.481 143.239 303.019 143.79 302.692C144.35 302.365 144.971 302.202 145.652 302.202C146.324 302.202 146.907 302.347 147.402 302.636C147.897 302.925 148.265 303.289 148.508 303.728V302.328H149.796V310H148.508V308.572C148.256 309.02 147.878 309.393 147.374 309.692C146.879 309.981 146.301 310.126 145.638 310.126C144.957 310.126 144.341 309.958 143.79 309.622C143.239 309.286 142.805 308.815 142.488 308.208C142.171 307.601 142.012 306.911 142.012 306.136ZM148.508 306.15C148.508 305.571 148.391 305.067 148.158 304.638C147.925 304.209 147.607 303.882 147.206 303.658C146.814 303.425 146.38 303.308 145.904 303.308C145.428 303.308 144.994 303.42 144.602 303.644C144.21 303.868 143.897 304.195 143.664 304.624C143.431 305.053 143.314 305.557 143.314 306.136C143.314 306.724 143.431 307.237 143.664 307.676C143.897 308.105 144.21 308.437 144.602 308.67C144.994 308.894 145.428 309.006 145.904 309.006C146.38 309.006 146.814 308.894 147.206 308.67C147.607 308.437 147.925 308.105 148.158 307.676C148.391 307.237 148.508 306.729 148.508 306.15ZM151.473 306.15C151.473 305.357 151.632 304.666 151.949 304.078C152.266 303.481 152.705 303.019 153.265 302.692C153.834 302.365 154.483 302.202 155.211 302.202C156.154 302.202 156.928 302.431 157.535 302.888C158.151 303.345 158.557 303.98 158.753 304.792H157.381C157.25 304.325 156.994 303.957 156.611 303.686C156.238 303.415 155.771 303.28 155.211 303.28C154.483 303.28 153.895 303.532 153.447 304.036C152.999 304.531 152.775 305.235 152.775 306.15C152.775 307.074 152.999 307.788 153.447 308.292C153.895 308.796 154.483 309.048 155.211 309.048C155.771 309.048 156.238 308.917 156.611 308.656C156.984 308.395 157.241 308.021 157.381 307.536H158.753C158.548 308.32 158.137 308.95 157.521 309.426C156.905 309.893 156.135 310.126 155.211 310.126C154.483 310.126 153.834 309.963 153.265 309.636C152.705 309.309 152.266 308.847 151.949 308.25C151.632 307.653 151.473 306.953 151.473 306.15ZM167.453 305.87C167.453 306.113 167.439 306.369 167.411 306.64H161.279C161.326 307.396 161.582 307.989 162.049 308.418C162.525 308.838 163.099 309.048 163.771 309.048C164.322 309.048 164.779 308.922 165.143 308.67C165.516 308.409 165.778 308.063 165.927 307.634H167.299C167.094 308.371 166.683 308.973 166.067 309.44C165.451 309.897 164.686 310.126 163.771 310.126C163.043 310.126 162.39 309.963 161.811 309.636C161.242 309.309 160.794 308.847 160.467 308.25C160.14 307.643 159.977 306.943 159.977 306.15C159.977 305.357 160.136 304.661 160.453 304.064C160.77 303.467 161.214 303.009 161.783 302.692C162.362 302.365 163.024 302.202 163.771 302.202C164.499 302.202 165.143 302.361 165.703 302.678C166.263 302.995 166.692 303.434 166.991 303.994C167.299 304.545 167.453 305.17 167.453 305.87ZM166.137 305.604C166.137 305.119 166.03 304.703 165.815 304.358C165.6 304.003 165.306 303.737 164.933 303.56C164.569 303.373 164.163 303.28 163.715 303.28C163.071 303.28 162.52 303.485 162.063 303.896C161.615 304.307 161.358 304.876 161.293 305.604H166.137ZM176.143 312.604C175.247 311.727 174.547 310.611 174.043 309.258C173.548 307.905 173.301 306.444 173.301 304.876C173.301 303.271 173.562 301.773 174.085 300.382C174.617 298.982 175.373 297.829 176.353 296.924H177.683V297.05C176.638 298.03 175.849 299.211 175.317 300.592C174.794 301.964 174.533 303.392 174.533 304.876C174.533 306.323 174.78 307.704 175.275 309.02C175.779 310.336 176.512 311.489 177.473 312.478V312.604H176.143ZM180.47 300.242V306.416C180.47 307.284 180.68 307.928 181.1 308.348C181.53 308.768 182.122 308.978 182.878 308.978C183.625 308.978 184.208 308.768 184.628 308.348C185.058 307.928 185.272 307.284 185.272 306.416V300.242H186.546V306.402C186.546 307.214 186.383 307.9 186.056 308.46C185.73 309.011 185.286 309.421 184.726 309.692C184.176 309.963 183.555 310.098 182.864 310.098C182.174 310.098 181.548 309.963 180.988 309.692C180.438 309.421 179.999 309.011 179.672 308.46C179.355 307.9 179.196 307.214 179.196 306.402V300.242H180.47ZM189.946 300.242V310H188.672V300.242H189.946ZM191.711 312.604V312.478C192.672 311.489 193.4 310.336 193.895 309.02C194.399 307.704 194.651 306.323 194.651 304.876C194.651 303.392 194.385 301.964 193.853 300.592C193.33 299.211 192.546 298.03 191.501 297.05V296.924H192.831C193.811 297.829 194.562 298.982 195.085 300.382C195.617 301.773 195.883 303.271 195.883 304.876C195.883 306.444 195.631 307.905 195.127 309.258C194.632 310.611 193.937 311.727 193.041 312.604H191.711ZM205.245 300.242C206.309 300.242 207.228 300.443 208.003 300.844C208.787 301.236 209.384 301.801 209.795 302.538C210.215 303.275 210.425 304.143 210.425 305.142C210.425 306.141 210.215 307.009 209.795 307.746C209.384 308.474 208.787 309.034 208.003 309.426C207.228 309.809 206.309 310 205.245 310H202.207V300.242H205.245ZM205.245 308.95C206.505 308.95 207.466 308.619 208.129 307.956C208.792 307.284 209.123 306.346 209.123 305.142C209.123 303.929 208.787 302.981 208.115 302.3C207.452 301.619 206.496 301.278 205.245 301.278H203.481V308.95H205.245ZM219.105 305.87C219.105 306.113 219.091 306.369 219.063 306.64H212.931C212.978 307.396 213.235 307.989 213.701 308.418C214.177 308.838 214.751 309.048 215.423 309.048C215.974 309.048 216.431 308.922 216.795 308.67C217.169 308.409 217.43 308.063 217.579 307.634H218.951C218.746 308.371 218.335 308.973 217.719 309.44C217.103 309.897 216.338 310.126 215.423 310.126C214.695 310.126 214.042 309.963 213.463 309.636C212.894 309.309 212.446 308.847 212.119 308.25C211.793 307.643 211.629 306.943 211.629 306.15C211.629 305.357 211.788 304.661 212.105 304.064C212.423 303.467 212.866 303.009 213.435 302.692C214.014 302.365 214.677 302.202 215.423 302.202C216.151 302.202 216.795 302.361 217.355 302.678C217.915 302.995 218.345 303.434 218.643 303.994C218.951 304.545 219.105 305.17 219.105 305.87ZM217.789 305.604C217.789 305.119 217.682 304.703 217.467 304.358C217.253 304.003 216.959 303.737 216.585 303.56C216.221 303.373 215.815 303.28 215.367 303.28C214.723 303.28 214.173 303.485 213.715 303.896C213.267 304.307 213.011 304.876 212.945 305.604H217.789ZM223.503 310.126C222.915 310.126 222.388 310.028 221.921 309.832C221.454 309.627 221.086 309.347 220.815 308.992C220.544 308.628 220.395 308.213 220.367 307.746H221.683C221.72 308.129 221.898 308.441 222.215 308.684C222.542 308.927 222.966 309.048 223.489 309.048C223.974 309.048 224.357 308.941 224.637 308.726C224.917 308.511 225.057 308.241 225.057 307.914C225.057 307.578 224.908 307.331 224.609 307.172C224.31 307.004 223.848 306.841 223.223 306.682C222.654 306.533 222.187 306.383 221.823 306.234C221.468 306.075 221.16 305.847 220.899 305.548C220.647 305.24 220.521 304.839 220.521 304.344C220.521 303.952 220.638 303.593 220.871 303.266C221.104 302.939 221.436 302.683 221.865 302.496C222.294 302.3 222.784 302.202 223.335 302.202C224.184 302.202 224.87 302.417 225.393 302.846C225.916 303.275 226.196 303.863 226.233 304.61H224.959C224.931 304.209 224.768 303.887 224.469 303.644C224.18 303.401 223.788 303.28 223.293 303.28C222.836 303.28 222.472 303.378 222.201 303.574C221.93 303.77 221.795 304.027 221.795 304.344C221.795 304.596 221.874 304.806 222.033 304.974C222.201 305.133 222.406 305.263 222.649 305.366C222.901 305.459 223.246 305.567 223.685 305.688C224.236 305.837 224.684 305.987 225.029 306.136C225.374 306.276 225.668 306.491 225.911 306.78C226.163 307.069 226.294 307.447 226.303 307.914C226.303 308.334 226.186 308.712 225.953 309.048C225.72 309.384 225.388 309.65 224.959 309.846C224.539 310.033 224.054 310.126 223.503 310.126ZM228.759 301.082C228.517 301.082 228.311 300.998 228.143 300.83C227.975 300.662 227.891 300.457 227.891 300.214C227.891 299.971 227.975 299.766 228.143 299.598C228.311 299.43 228.517 299.346 228.759 299.346C228.993 299.346 229.189 299.43 229.347 299.598C229.515 299.766 229.599 299.971 229.599 300.214C229.599 300.457 229.515 300.662 229.347 300.83C229.189 300.998 228.993 301.082 228.759 301.082ZM229.375 302.328V310H228.101V302.328H229.375ZM234.711 302.202C235.373 302.202 235.952 302.347 236.447 302.636C236.951 302.925 237.324 303.289 237.567 303.728V302.328H238.855V310.168C238.855 310.868 238.705 311.489 238.407 312.03C238.108 312.581 237.679 313.01 237.119 313.318C236.568 313.626 235.924 313.78 235.187 313.78C234.179 313.78 233.339 313.542 232.667 313.066C231.995 312.59 231.598 311.941 231.477 311.12H232.737C232.877 311.587 233.166 311.96 233.605 312.24C234.043 312.529 234.571 312.674 235.187 312.674C235.887 312.674 236.456 312.455 236.895 312.016C237.343 311.577 237.567 310.961 237.567 310.168V308.558C237.315 309.006 236.941 309.379 236.447 309.678C235.952 309.977 235.373 310.126 234.711 310.126C234.029 310.126 233.409 309.958 232.849 309.622C232.298 309.286 231.864 308.815 231.547 308.208C231.229 307.601 231.071 306.911 231.071 306.136C231.071 305.352 231.229 304.666 231.547 304.078C231.864 303.481 232.298 303.019 232.849 302.692C233.409 302.365 234.029 302.202 234.711 302.202ZM237.567 306.15C237.567 305.571 237.45 305.067 237.217 304.638C236.983 304.209 236.666 303.882 236.265 303.658C235.873 303.425 235.439 303.308 234.963 303.308C234.487 303.308 234.053 303.42 233.661 303.644C233.269 303.868 232.956 304.195 232.723 304.624C232.489 305.053 232.373 305.557 232.373 306.136C232.373 306.724 232.489 307.237 232.723 307.676C232.956 308.105 233.269 308.437 233.661 308.67C234.053 308.894 234.487 309.006 234.963 309.006C235.439 309.006 235.873 308.894 236.265 308.67C236.666 308.437 236.983 308.105 237.217 307.676C237.45 307.237 237.567 306.729 237.567 306.15ZM244.746 302.188C245.679 302.188 246.435 302.473 247.014 303.042C247.592 303.602 247.882 304.414 247.882 305.478V310H246.622V305.66C246.622 304.895 246.43 304.311 246.048 303.91C245.665 303.499 245.142 303.294 244.48 303.294C243.808 303.294 243.271 303.504 242.87 303.924C242.478 304.344 242.282 304.955 242.282 305.758V310H241.008V302.328H242.282V303.42C242.534 303.028 242.874 302.725 243.304 302.51C243.742 302.295 244.223 302.188 244.746 302.188ZM256.963 305.87C256.963 306.113 256.949 306.369 256.921 306.64H250.789C250.835 307.396 251.092 307.989 251.559 308.418C252.035 308.838 252.609 309.048 253.281 309.048C253.831 309.048 254.289 308.922 254.653 308.67C255.026 308.409 255.287 308.063 255.437 307.634H256.809C256.603 308.371 256.193 308.973 255.577 309.44C254.961 309.897 254.195 310.126 253.281 310.126C252.553 310.126 251.899 309.963 251.321 309.636C250.751 309.309 250.303 308.847 249.977 308.25C249.65 307.643 249.487 306.943 249.487 306.15C249.487 305.357 249.645 304.661 249.963 304.064C250.28 303.467 250.723 303.009 251.293 302.692C251.871 302.365 252.534 302.202 253.281 302.202C254.009 302.202 254.653 302.361 255.213 302.678C255.773 302.995 256.202 303.434 256.501 303.994C256.809 304.545 256.963 305.17 256.963 305.87ZM255.647 305.604C255.647 305.119 255.539 304.703 255.325 304.358C255.11 304.003 254.816 303.737 254.443 303.56C254.079 303.373 253.673 303.28 253.225 303.28C252.581 303.28 252.03 303.485 251.573 303.896C251.125 304.307 250.868 304.876 250.803 305.604H255.647ZM259.918 303.574C260.142 303.135 260.46 302.795 260.87 302.552C261.29 302.309 261.799 302.188 262.396 302.188V303.504H262.06C260.632 303.504 259.918 304.279 259.918 305.828V310H258.644V302.328H259.918V303.574ZM269.153 303.378V307.9C269.153 308.273 269.233 308.539 269.391 308.698C269.55 308.847 269.825 308.922 270.217 308.922H271.155V310H270.007C269.298 310 268.766 309.837 268.411 309.51C268.057 309.183 267.879 308.647 267.879 307.9V303.378H266.885V302.328H267.879V300.396H269.153V302.328H271.155V303.378H269.153ZM273.357 301.082C273.114 301.082 272.909 300.998 272.741 300.83C272.573 300.662 272.489 300.457 272.489 300.214C272.489 299.971 272.573 299.766 272.741 299.598C272.909 299.43 273.114 299.346 273.357 299.346C273.59 299.346 273.786 299.43 273.945 299.598C274.113 299.766 274.197 299.971 274.197 300.214C274.197 300.457 274.113 300.662 273.945 300.83C273.786 300.998 273.59 301.082 273.357 301.082ZM273.973 302.328V310H272.699V302.328H273.973ZM275.668 306.136C275.668 305.352 275.827 304.666 276.144 304.078C276.462 303.481 276.896 303.019 277.446 302.692C278.006 302.365 278.632 302.202 279.322 302.202C279.92 302.202 280.475 302.342 280.988 302.622C281.502 302.893 281.894 303.252 282.164 303.7V299.64H283.452V310H282.164V308.558C281.912 309.015 281.539 309.393 281.044 309.692C280.55 309.981 279.971 310.126 279.308 310.126C278.627 310.126 278.006 309.958 277.446 309.622C276.896 309.286 276.462 308.815 276.144 308.208C275.827 307.601 275.668 306.911 275.668 306.136ZM282.164 306.15C282.164 305.571 282.048 305.067 281.814 304.638C281.581 304.209 281.264 303.882 280.862 303.658C280.47 303.425 280.036 303.308 279.56 303.308C279.084 303.308 278.65 303.42 278.258 303.644C277.866 303.868 277.554 304.195 277.32 304.624C277.087 305.053 276.97 305.557 276.97 306.136C276.97 306.724 277.087 307.237 277.32 307.676C277.554 308.105 277.866 308.437 278.258 308.67C278.65 308.894 279.084 309.006 279.56 309.006C280.036 309.006 280.47 308.894 280.862 308.67C281.264 308.437 281.581 308.105 281.814 307.676C282.048 307.237 282.164 306.729 282.164 306.15ZM285.129 306.136C285.129 305.352 285.288 304.666 285.605 304.078C285.923 303.481 286.357 303.019 286.907 302.692C287.467 302.365 288.088 302.202 288.769 302.202C289.441 302.202 290.025 302.347 290.519 302.636C291.014 302.925 291.383 303.289 291.625 303.728V302.328H292.913V310H291.625V308.572C291.373 309.02 290.995 309.393 290.491 309.692C289.997 309.981 289.418 310.126 288.755 310.126C288.074 310.126 287.458 309.958 286.907 309.622C286.357 309.286 285.923 308.815 285.605 308.208C285.288 307.601 285.129 306.911 285.129 306.136ZM291.625 306.15C291.625 305.571 291.509 305.067 291.275 304.638C291.042 304.209 290.725 303.882 290.323 303.658C289.931 303.425 289.497 303.308 289.021 303.308C288.545 303.308 288.111 303.42 287.719 303.644C287.327 303.868 287.015 304.195 286.781 304.624C286.548 305.053 286.431 305.557 286.431 306.136C286.431 306.724 286.548 307.237 286.781 307.676C287.015 308.105 287.327 308.437 287.719 308.67C288.111 308.894 288.545 309.006 289.021 309.006C289.497 309.006 289.931 308.894 290.323 308.67C290.725 308.437 291.042 308.105 291.275 307.676C291.509 307.237 291.625 306.729 291.625 306.15ZM299.35 310L296.34 306.612V310H295.066V299.64H296.34V305.73L299.294 302.328H301.072L297.46 306.15L301.086 310H299.35ZM73.352 324.756C73.6133 324.299 73.996 323.925 74.5 323.636C75.004 323.347 75.578 323.202 76.222 323.202C76.9127 323.202 77.5333 323.365 78.084 323.692C78.6347 324.019 79.0687 324.481 79.386 325.078C79.7033 325.666 79.862 326.352 79.862 327.136C79.862 327.911 79.7033 328.601 79.386 329.208C79.0687 329.815 78.63 330.286 78.07 330.622C77.5193 330.958 76.9033 331.126 76.222 331.126C75.5593 331.126 74.976 330.981 74.472 330.692C73.9773 330.403 73.604 330.034 73.352 329.586V331H72.078V320.64H73.352V324.756ZM78.56 327.136C78.56 326.557 78.4433 326.053 78.21 325.624C77.9767 325.195 77.6593 324.868 77.258 324.644C76.866 324.42 76.432 324.308 75.956 324.308C75.4893 324.308 75.0553 324.425 74.654 324.658C74.262 324.882 73.9447 325.213 73.702 325.652C73.4687 326.081 73.352 326.581 73.352 327.15C73.352 327.729 73.4687 328.237 73.702 328.676C73.9447 329.105 74.262 329.437 74.654 329.67C75.0553 329.894 75.4893 330.006 75.956 330.006C76.432 330.006 76.866 329.894 77.258 329.67C77.6593 329.437 77.9767 329.105 78.21 328.676C78.4433 328.237 78.56 327.724 78.56 327.136ZM82.1969 322.082C81.9543 322.082 81.7489 321.998 81.5809 321.83C81.4129 321.662 81.3289 321.457 81.3289 321.214C81.3289 320.971 81.4129 320.766 81.5809 320.598C81.7489 320.43 81.9543 320.346 82.1969 320.346C82.4303 320.346 82.6263 320.43 82.7849 320.598C82.9529 320.766 83.0369 320.971 83.0369 321.214C83.0369 321.457 82.9529 321.662 82.7849 321.83C82.6263 321.998 82.4303 322.082 82.1969 322.082ZM82.8129 323.328V331H81.5389V323.328H82.8129ZM87.7003 331.126C87.1123 331.126 86.5849 331.028 86.1183 330.832C85.6516 330.627 85.2829 330.347 85.0123 329.992C84.7416 329.628 84.5923 329.213 84.5643 328.746H85.8803C85.9176 329.129 86.0949 329.441 86.4123 329.684C86.7389 329.927 87.1636 330.048 87.6863 330.048C88.1716 330.048 88.5543 329.941 88.8343 329.726C89.1143 329.511 89.2543 329.241 89.2543 328.914C89.2543 328.578 89.1049 328.331 88.8063 328.172C88.5076 328.004 88.0456 327.841 87.4203 327.682C86.8509 327.533 86.3843 327.383 86.0203 327.234C85.6656 327.075 85.3576 326.847 85.0963 326.548C84.8443 326.24 84.7183 325.839 84.7183 325.344C84.7183 324.952 84.8349 324.593 85.0683 324.266C85.3016 323.939 85.6329 323.683 86.0623 323.496C86.4916 323.3 86.9816 323.202 87.5323 323.202C88.3816 323.202 89.0676 323.417 89.5903 323.846C90.1129 324.275 90.3929 324.863 90.4303 325.61H89.1563C89.1283 325.209 88.9649 324.887 88.6663 324.644C88.3769 324.401 87.9849 324.28 87.4903 324.28C87.0329 324.28 86.6689 324.378 86.3983 324.574C86.1276 324.77 85.9923 325.027 85.9923 325.344C85.9923 325.596 86.0716 325.806 86.2303 325.974C86.3983 326.133 86.6036 326.263 86.8463 326.366C87.0983 326.459 87.4436 326.567 87.8823 326.688C88.4329 326.837 88.8809 326.987 89.2263 327.136C89.5716 327.276 89.8656 327.491 90.1083 327.78C90.3603 328.069 90.4909 328.447 90.5003 328.914C90.5003 329.334 90.3836 329.712 90.1503 330.048C89.9169 330.384 89.5856 330.65 89.1563 330.846C88.7363 331.033 88.2509 331.126 87.7003 331.126ZM91.8227 327.136C91.8227 326.352 91.9814 325.666 92.2987 325.078C92.616 324.481 93.05 324.019 93.6007 323.692C94.1607 323.365 94.7814 323.202 95.4627 323.202C96.1347 323.202 96.718 323.347 97.2127 323.636C97.7074 323.925 98.076 324.289 98.3187 324.728V323.328H99.6067V331H98.3187V329.572C98.0667 330.02 97.6887 330.393 97.1847 330.692C96.69 330.981 96.1114 331.126 95.4487 331.126C94.7674 331.126 94.1514 330.958 93.6007 330.622C93.05 330.286 92.616 329.815 92.2987 329.208C91.9814 328.601 91.8227 327.911 91.8227 327.136ZM98.3187 327.15C98.3187 326.571 98.202 326.067 97.9687 325.638C97.7354 325.209 97.418 324.882 97.0167 324.658C96.6247 324.425 96.1907 324.308 95.7147 324.308C95.2387 324.308 94.8047 324.42 94.4127 324.644C94.0207 324.868 93.708 325.195 93.4747 325.624C93.2414 326.053 93.1247 326.557 93.1247 327.136C93.1247 327.724 93.2414 328.237 93.4747 328.676C93.708 329.105 94.0207 329.437 94.4127 329.67C94.8047 329.894 95.2387 330.006 95.7147 330.006C96.1907 330.006 96.6247 329.894 97.0167 329.67C97.418 329.437 97.7354 329.105 97.9687 328.676C98.202 328.237 98.3187 327.729 98.3187 327.15ZM105.016 327.136C105.016 326.352 105.175 325.666 105.492 325.078C105.809 324.481 106.243 324.019 106.794 323.692C107.354 323.365 107.979 323.202 108.67 323.202C109.267 323.202 109.823 323.342 110.336 323.622C110.849 323.893 111.241 324.252 111.512 324.7V320.64H112.8V331H111.512V329.558C111.26 330.015 110.887 330.393 110.392 330.692C109.897 330.981 109.319 331.126 108.656 331.126C107.975 331.126 107.354 330.958 106.794 330.622C106.243 330.286 105.809 329.815 105.492 329.208C105.175 328.601 105.016 327.911 105.016 327.136ZM111.512 327.15C111.512 326.571 111.395 326.067 111.162 325.638C110.929 325.209 110.611 324.882 110.21 324.658C109.818 324.425 109.384 324.308 108.908 324.308C108.432 324.308 107.998 324.42 107.606 324.644C107.214 324.868 106.901 325.195 106.668 325.624C106.435 326.053 106.318 326.557 106.318 327.136C106.318 327.724 106.435 328.237 106.668 328.676C106.901 329.105 107.214 329.437 107.606 329.67C107.998 329.894 108.432 330.006 108.908 330.006C109.384 330.006 109.818 329.894 110.21 329.67C110.611 329.437 110.929 329.105 111.162 328.676C111.395 328.237 111.512 327.729 111.512 327.15ZM115.611 322.082C115.368 322.082 115.163 321.998 114.995 321.83C114.827 321.662 114.743 321.457 114.743 321.214C114.743 320.971 114.827 320.766 114.995 320.598C115.163 320.43 115.368 320.346 115.611 320.346C115.844 320.346 116.04 320.43 116.199 320.598C116.367 320.766 116.451 320.971 116.451 321.214C116.451 321.457 116.367 321.662 116.199 321.83C116.04 321.998 115.844 322.082 115.611 322.082ZM116.227 323.328V331H114.953V323.328H116.227ZM119.672 324.742C119.924 324.303 120.298 323.939 120.792 323.65C121.296 323.351 121.88 323.202 122.542 323.202C123.224 323.202 123.84 323.365 124.39 323.692C124.95 324.019 125.389 324.481 125.706 325.078C126.024 325.666 126.182 326.352 126.182 327.136C126.182 327.911 126.024 328.601 125.706 329.208C125.389 329.815 124.95 330.286 124.39 330.622C123.84 330.958 123.224 331.126 122.542 331.126C121.889 331.126 121.31 330.981 120.806 330.692C120.312 330.393 119.934 330.025 119.672 329.586V334.64H118.398V323.328H119.672V324.742ZM124.88 327.136C124.88 326.557 124.764 326.053 124.53 325.624C124.297 325.195 123.98 324.868 123.578 324.644C123.186 324.42 122.752 324.308 122.276 324.308C121.81 324.308 121.376 324.425 120.974 324.658C120.582 324.882 120.265 325.213 120.022 325.652C119.789 326.081 119.672 326.581 119.672 327.15C119.672 327.729 119.789 328.237 120.022 328.676C120.265 329.105 120.582 329.437 120.974 329.67C121.376 329.894 121.81 330.006 122.276 330.006C122.752 330.006 123.186 329.894 123.578 329.67C123.98 329.437 124.297 329.105 124.53 328.676C124.764 328.237 124.88 327.724 124.88 327.136ZM128.517 322.082C128.275 322.082 128.069 321.998 127.901 321.83C127.733 321.662 127.649 321.457 127.649 321.214C127.649 320.971 127.733 320.766 127.901 320.598C128.069 320.43 128.275 320.346 128.517 320.346C128.751 320.346 128.947 320.43 129.105 320.598C129.273 320.766 129.357 320.971 129.357 321.214C129.357 321.457 129.273 321.662 129.105 321.83C128.947 321.998 128.751 322.082 128.517 322.082ZM129.133 323.328V331H127.859V323.328H129.133ZM134.021 331.126C133.433 331.126 132.905 331.028 132.439 330.832C131.972 330.627 131.603 330.347 131.333 329.992C131.062 329.628 130.913 329.213 130.885 328.746H132.201C132.238 329.129 132.415 329.441 132.733 329.684C133.059 329.927 133.484 330.048 134.007 330.048C134.492 330.048 134.875 329.941 135.155 329.726C135.435 329.511 135.575 329.241 135.575 328.914C135.575 328.578 135.425 328.331 135.127 328.172C134.828 328.004 134.366 327.841 133.741 327.682C133.171 327.533 132.705 327.383 132.341 327.234C131.986 327.075 131.678 326.847 131.417 326.548C131.165 326.24 131.039 325.839 131.039 325.344C131.039 324.952 131.155 324.593 131.389 324.266C131.622 323.939 131.953 323.683 132.383 323.496C132.812 323.3 133.302 323.202 133.853 323.202C134.702 323.202 135.388 323.417 135.911 323.846C136.433 324.275 136.713 324.863 136.751 325.61H135.477C135.449 325.209 135.285 324.887 134.987 324.644C134.697 324.401 134.305 324.28 133.811 324.28C133.353 324.28 132.989 324.378 132.719 324.574C132.448 324.77 132.313 325.027 132.313 325.344C132.313 325.596 132.392 325.806 132.551 325.974C132.719 326.133 132.924 326.263 133.167 326.366C133.419 326.459 133.764 326.567 134.203 326.688C134.753 326.837 135.201 326.987 135.547 327.136C135.892 327.276 136.186 327.491 136.429 327.78C136.681 328.069 136.811 328.447 136.821 328.914C136.821 329.334 136.704 329.712 136.471 330.048C136.237 330.384 135.906 330.65 135.477 330.846C135.057 331.033 134.571 331.126 134.021 331.126ZM138.143 327.136C138.143 326.352 138.302 325.666 138.619 325.078C138.936 324.481 139.37 324.019 139.921 323.692C140.481 323.365 141.102 323.202 141.783 323.202C142.455 323.202 143.038 323.347 143.533 323.636C144.028 323.925 144.396 324.289 144.639 324.728V323.328H145.927V331H144.639V329.572C144.387 330.02 144.009 330.393 143.505 330.692C143.01 330.981 142.432 331.126 141.769 331.126C141.088 331.126 140.472 330.958 139.921 330.622C139.37 330.286 138.936 329.815 138.619 329.208C138.302 328.601 138.143 327.911 138.143 327.136ZM144.639 327.15C144.639 326.571 144.522 326.067 144.289 325.638C144.056 325.209 143.738 324.882 143.337 324.658C142.945 324.425 142.511 324.308 142.035 324.308C141.559 324.308 141.125 324.42 140.733 324.644C140.341 324.868 140.028 325.195 139.795 325.624C139.562 326.053 139.445 326.557 139.445 327.136C139.445 327.724 139.562 328.237 139.795 328.676C140.028 329.105 140.341 329.437 140.733 329.67C141.125 329.894 141.559 330.006 142.035 330.006C142.511 330.006 142.945 329.894 143.337 329.67C143.738 329.437 144.056 329.105 144.289 328.676C144.522 328.237 144.639 327.729 144.639 327.15ZM151.888 323.188C152.467 323.188 152.989 323.314 153.456 323.566C153.923 323.809 154.287 324.177 154.548 324.672C154.819 325.167 154.954 325.769 154.954 326.478V331H153.694V326.66C153.694 325.895 153.503 325.311 153.12 324.91C152.737 324.499 152.215 324.294 151.552 324.294C150.88 324.294 150.343 324.504 149.942 324.924C149.55 325.344 149.354 325.955 149.354 326.758V331H148.08V320.64H149.354V324.42C149.606 324.028 149.951 323.725 150.39 323.51C150.838 323.295 151.337 323.188 151.888 323.188ZM161.319 331L158.309 327.612V331H157.035V320.64H158.309V326.73L161.263 323.328H163.041L159.429 327.15L163.055 331H161.319ZM163.764 327.136C163.764 326.352 163.923 325.666 164.24 325.078C164.557 324.481 164.991 324.019 165.542 323.692C166.102 323.365 166.723 323.202 167.404 323.202C168.076 323.202 168.659 323.347 169.154 323.636C169.649 323.925 170.017 324.289 170.26 324.728V323.328H171.548V331H170.26V329.572C170.008 330.02 169.63 330.393 169.126 330.692C168.631 330.981 168.053 331.126 167.39 331.126C166.709 331.126 166.093 330.958 165.542 330.622C164.991 330.286 164.557 329.815 164.24 329.208C163.923 328.601 163.764 327.911 163.764 327.136ZM170.26 327.15C170.26 326.571 170.143 326.067 169.91 325.638C169.677 325.209 169.359 324.882 168.958 324.658C168.566 324.425 168.132 324.308 167.656 324.308C167.18 324.308 166.746 324.42 166.354 324.644C165.962 324.868 165.649 325.195 165.416 325.624C165.183 326.053 165.066 326.557 165.066 327.136C165.066 327.724 165.183 328.237 165.416 328.676C165.649 329.105 165.962 329.437 166.354 329.67C166.746 329.894 167.18 330.006 167.656 330.006C168.132 330.006 168.566 329.894 168.958 329.67C169.359 329.437 169.677 329.105 169.91 328.676C170.143 328.237 170.26 327.729 170.26 327.15ZM177.439 323.188C178.372 323.188 179.128 323.473 179.707 324.042C180.286 324.602 180.575 325.414 180.575 326.478V331H179.315V326.66C179.315 325.895 179.124 325.311 178.741 324.91C178.358 324.499 177.836 324.294 177.173 324.294C176.501 324.294 175.964 324.504 175.563 324.924C175.171 325.344 174.975 325.955 174.975 326.758V331H173.701V323.328H174.975V324.42C175.227 324.028 175.568 323.725 175.997 323.51C176.436 323.295 176.916 323.188 177.439 323.188ZM185.913 327.136C185.913 326.352 186.071 325.666 186.389 325.078C186.706 324.481 187.14 324.019 187.691 323.692C188.251 323.365 188.876 323.202 189.567 323.202C190.164 323.202 190.719 323.342 191.233 323.622C191.746 323.893 192.138 324.252 192.409 324.7V320.64H193.697V331H192.409V329.558C192.157 330.015 191.783 330.393 191.289 330.692C190.794 330.981 190.215 331.126 189.553 331.126C188.871 331.126 188.251 330.958 187.691 330.622C187.14 330.286 186.706 329.815 186.389 329.208C186.071 328.601 185.913 327.911 185.913 327.136ZM192.409 327.15C192.409 326.571 192.292 326.067 192.059 325.638C191.825 325.209 191.508 324.882 191.107 324.658C190.715 324.425 190.281 324.308 189.805 324.308C189.329 324.308 188.895 324.42 188.503 324.644C188.111 324.868 187.798 325.195 187.565 325.624C187.331 326.053 187.215 326.557 187.215 327.136C187.215 327.724 187.331 328.237 187.565 328.676C187.798 329.105 188.111 329.437 188.503 329.67C188.895 329.894 189.329 330.006 189.805 330.006C190.281 330.006 190.715 329.894 191.107 329.67C191.508 329.437 191.825 329.105 192.059 328.676C192.292 328.237 192.409 327.729 192.409 327.15ZM202.849 326.87C202.849 327.113 202.835 327.369 202.807 327.64H196.675C196.722 328.396 196.979 328.989 197.445 329.418C197.921 329.838 198.495 330.048 199.167 330.048C199.718 330.048 200.175 329.922 200.539 329.67C200.913 329.409 201.174 329.063 201.323 328.634H202.695C202.49 329.371 202.079 329.973 201.463 330.44C200.847 330.897 200.082 331.126 199.167 331.126C198.439 331.126 197.786 330.963 197.207 330.636C196.638 330.309 196.19 329.847 195.863 329.25C195.537 328.643 195.373 327.943 195.373 327.15C195.373 326.357 195.532 325.661 195.849 325.064C196.167 324.467 196.61 324.009 197.179 323.692C197.758 323.365 198.421 323.202 199.167 323.202C199.895 323.202 200.539 323.361 201.099 323.678C201.659 323.995 202.089 324.434 202.387 324.994C202.695 325.545 202.849 326.17 202.849 326.87ZM201.533 326.604C201.533 326.119 201.426 325.703 201.211 325.358C200.997 325.003 200.703 324.737 200.329 324.56C199.965 324.373 199.559 324.28 199.111 324.28C198.467 324.28 197.917 324.485 197.459 324.896C197.011 325.307 196.755 325.876 196.689 326.604H201.533ZM208.269 323.188C209.202 323.188 209.958 323.473 210.537 324.042C211.116 324.602 211.405 325.414 211.405 326.478V331H210.145V326.66C210.145 325.895 209.954 325.311 209.571 324.91C209.188 324.499 208.666 324.294 208.003 324.294C207.331 324.294 206.794 324.504 206.393 324.924C206.001 325.344 205.805 325.955 205.805 326.758V331H204.531V323.328H205.805V324.42C206.057 324.028 206.398 323.725 206.827 323.51C207.266 323.295 207.746 323.188 208.269 323.188ZM216.65 323.202C217.313 323.202 217.892 323.347 218.386 323.636C218.89 323.925 219.264 324.289 219.506 324.728V323.328H220.794V331.168C220.794 331.868 220.645 332.489 220.346 333.03C220.048 333.581 219.618 334.01 219.058 334.318C218.508 334.626 217.864 334.78 217.126 334.78C216.118 334.78 215.278 334.542 214.606 334.066C213.934 333.59 213.538 332.941 213.416 332.12H214.676C214.816 332.587 215.106 332.96 215.544 333.24C215.983 333.529 216.51 333.674 217.126 333.674C217.826 333.674 218.396 333.455 218.834 333.016C219.282 332.577 219.506 331.961 219.506 331.168V329.558C219.254 330.006 218.881 330.379 218.386 330.678C217.892 330.977 217.313 331.126 216.65 331.126C215.969 331.126 215.348 330.958 214.788 330.622C214.238 330.286 213.804 329.815 213.486 329.208C213.169 328.601 213.01 327.911 213.01 327.136C213.01 326.352 213.169 325.666 213.486 325.078C213.804 324.481 214.238 324.019 214.788 323.692C215.348 323.365 215.969 323.202 216.65 323.202ZM219.506 327.15C219.506 326.571 219.39 326.067 219.156 325.638C218.923 325.209 218.606 324.882 218.204 324.658C217.812 324.425 217.378 324.308 216.902 324.308C216.426 324.308 215.992 324.42 215.6 324.644C215.208 324.868 214.896 325.195 214.662 325.624C214.429 326.053 214.312 326.557 214.312 327.136C214.312 327.724 214.429 328.237 214.662 328.676C214.896 329.105 215.208 329.437 215.6 329.67C215.992 329.894 216.426 330.006 216.902 330.006C217.378 330.006 217.812 329.894 218.204 329.67C218.606 329.437 218.923 329.105 219.156 328.676C219.39 328.237 219.506 327.729 219.506 327.15ZM222.471 327.136C222.471 326.352 222.63 325.666 222.947 325.078C223.264 324.481 223.698 324.019 224.249 323.692C224.809 323.365 225.43 323.202 226.111 323.202C226.783 323.202 227.366 323.347 227.861 323.636C228.356 323.925 228.724 324.289 228.967 324.728V323.328H230.255V331H228.967V329.572C228.715 330.02 228.337 330.393 227.833 330.692C227.338 330.981 226.76 331.126 226.097 331.126C225.416 331.126 224.8 330.958 224.249 330.622C223.698 330.286 223.264 329.815 222.947 329.208C222.63 328.601 222.471 327.911 222.471 327.136ZM228.967 327.15C228.967 326.571 228.85 326.067 228.617 325.638C228.384 325.209 228.066 324.882 227.665 324.658C227.273 324.425 226.839 324.308 226.363 324.308C225.887 324.308 225.453 324.42 225.061 324.644C224.669 324.868 224.356 325.195 224.123 325.624C223.89 326.053 223.773 326.557 223.773 327.136C223.773 327.724 223.89 328.237 224.123 328.676C224.356 329.105 224.669 329.437 225.061 329.67C225.453 329.894 225.887 330.006 226.363 330.006C226.839 330.006 227.273 329.894 227.665 329.67C228.066 329.437 228.384 329.105 228.617 328.676C228.85 328.237 228.967 327.729 228.967 327.15ZM236.146 323.188C237.079 323.188 237.835 323.473 238.414 324.042C238.993 324.602 239.282 325.414 239.282 326.478V331H238.022V326.66C238.022 325.895 237.831 325.311 237.448 324.91C237.065 324.499 236.543 324.294 235.88 324.294C235.208 324.294 234.671 324.504 234.27 324.924C233.878 325.344 233.682 325.955 233.682 326.758V331H232.408V323.328H233.682V324.42C233.934 324.028 234.275 323.725 234.704 323.51C235.143 323.295 235.623 323.188 236.146 323.188ZM246.342 321.242V327.416C246.342 328.284 246.552 328.928 246.972 329.348C247.401 329.768 247.994 329.978 248.75 329.978C249.496 329.978 250.08 329.768 250.5 329.348C250.929 328.928 251.144 328.284 251.144 327.416V321.242H252.418V327.402C252.418 328.214 252.254 328.9 251.928 329.46C251.601 330.011 251.158 330.421 250.598 330.692C250.047 330.963 249.426 331.098 248.736 331.098C248.045 331.098 247.42 330.963 246.86 330.692C246.309 330.421 245.87 330.011 245.544 329.46C245.226 328.9 245.068 328.214 245.068 327.402V321.242H246.342ZM257.259 331.126C256.671 331.126 256.144 331.028 255.677 330.832C255.21 330.627 254.842 330.347 254.571 329.992C254.3 329.628 254.151 329.213 254.123 328.746H255.439C255.476 329.129 255.654 329.441 255.971 329.684C256.298 329.927 256.722 330.048 257.245 330.048C257.73 330.048 258.113 329.941 258.393 329.726C258.673 329.511 258.813 329.241 258.813 328.914C258.813 328.578 258.664 328.331 258.365 328.172C258.066 328.004 257.604 327.841 256.979 327.682C256.41 327.533 255.943 327.383 255.579 327.234C255.224 327.075 254.916 326.847 254.655 326.548C254.403 326.24 254.277 325.839 254.277 325.344C254.277 324.952 254.394 324.593 254.627 324.266C254.86 323.939 255.192 323.683 255.621 323.496C256.05 323.3 256.54 323.202 257.091 323.202C257.94 323.202 258.626 323.417 259.149 323.846C259.672 324.275 259.952 324.863 259.989 325.61H258.715C258.687 325.209 258.524 324.887 258.225 324.644C257.936 324.401 257.544 324.28 257.049 324.28C256.592 324.28 256.228 324.378 255.957 324.574C255.686 324.77 255.551 325.027 255.551 325.344C255.551 325.596 255.63 325.806 255.789 325.974C255.957 326.133 256.162 326.263 256.405 326.366C256.657 326.459 257.002 326.567 257.441 326.688C257.992 326.837 258.44 326.987 258.785 327.136C259.13 327.276 259.424 327.491 259.667 327.78C259.919 328.069 260.05 328.447 260.059 328.914C260.059 329.334 259.942 329.712 259.709 330.048C259.476 330.384 259.144 330.65 258.715 330.846C258.295 331.033 257.81 331.126 257.259 331.126ZM268.857 326.87C268.857 327.113 268.843 327.369 268.815 327.64H262.683C262.73 328.396 262.987 328.989 263.453 329.418C263.929 329.838 264.503 330.048 265.175 330.048C265.726 330.048 266.183 329.922 266.547 329.67C266.921 329.409 267.182 329.063 267.331 328.634H268.703C268.498 329.371 268.087 329.973 267.471 330.44C266.855 330.897 266.09 331.126 265.175 331.126C264.447 331.126 263.794 330.963 263.215 330.636C262.646 330.309 262.198 329.847 261.871 329.25C261.545 328.643 261.381 327.943 261.381 327.15C261.381 326.357 261.54 325.661 261.857 325.064C262.175 324.467 262.618 324.009 263.187 323.692C263.766 323.365 264.429 323.202 265.175 323.202C265.903 323.202 266.547 323.361 267.107 323.678C267.667 323.995 268.097 324.434 268.395 324.994C268.703 325.545 268.857 326.17 268.857 326.87ZM267.541 326.604C267.541 326.119 267.434 325.703 267.219 325.358C267.005 325.003 266.711 324.737 266.337 324.56C265.973 324.373 265.567 324.28 265.119 324.28C264.475 324.28 263.925 324.485 263.467 324.896C263.019 325.307 262.763 325.876 262.697 326.604H267.541ZM271.813 324.574C272.037 324.135 272.354 323.795 272.765 323.552C273.185 323.309 273.694 323.188 274.291 323.188V324.504H273.955C272.527 324.504 271.813 325.279 271.813 326.828V331H270.539V323.328H271.813V324.574ZM73.352 343.278V346.54H76.908V347.59H73.352V350.95H77.328V352H72.078V342.228H77.328V343.278H73.352ZM83.2597 352L81.4397 349.144L79.6897 352H78.3597L80.8377 348.192L78.3597 344.328H79.8017L81.6217 347.17L83.3577 344.328H84.6877L82.2237 348.122L84.7017 352H83.2597ZM87.229 345.742C87.481 345.303 87.8543 344.939 88.349 344.65C88.853 344.351 89.4363 344.202 90.099 344.202C90.7803 344.202 91.3963 344.365 91.947 344.692C92.507 345.019 92.9456 345.481 93.263 346.078C93.5803 346.666 93.739 347.352 93.739 348.136C93.739 348.911 93.5803 349.601 93.263 350.208C92.9456 350.815 92.507 351.286 91.947 351.622C91.3963 351.958 90.7803 352.126 90.099 352.126C89.4456 352.126 88.867 351.981 88.363 351.692C87.8683 351.393 87.4903 351.025 87.229 350.586V355.64H85.955V344.328H87.229V345.742ZM92.437 348.136C92.437 347.557 92.3203 347.053 92.087 346.624C91.8536 346.195 91.5363 345.868 91.135 345.644C90.743 345.42 90.309 345.308 89.833 345.308C89.3663 345.308 88.9323 345.425 88.531 345.658C88.139 345.882 87.8216 346.213 87.579 346.652C87.3456 347.081 87.229 347.581 87.229 348.15C87.229 348.729 87.3456 349.237 87.579 349.676C87.8216 350.105 88.139 350.437 88.531 350.67C88.9323 350.894 89.3663 351.006 89.833 351.006C90.309 351.006 90.743 350.894 91.135 350.67C91.5363 350.437 91.8536 350.105 92.087 349.676C92.3203 349.237 92.437 348.724 92.437 348.136ZM102.416 347.87C102.416 348.113 102.402 348.369 102.374 348.64H96.2419C96.2886 349.396 96.5452 349.989 97.0119 350.418C97.4879 350.838 98.0619 351.048 98.7339 351.048C99.2846 351.048 99.7419 350.922 100.106 350.67C100.479 350.409 100.741 350.063 100.89 349.634H102.262C102.057 350.371 101.646 350.973 101.03 351.44C100.414 351.897 99.6486 352.126 98.7339 352.126C98.0059 352.126 97.3526 351.963 96.7739 351.636C96.2046 351.309 95.7566 350.847 95.4299 350.25C95.1032 349.643 94.9399 348.943 94.9399 348.15C94.9399 347.357 95.0986 346.661 95.4159 346.064C95.7332 345.467 96.1766 345.009 96.7459 344.692C97.3246 344.365 97.9872 344.202 98.7339 344.202C99.4619 344.202 100.106 344.361 100.666 344.678C101.226 344.995 101.655 345.434 101.954 345.994C102.262 346.545 102.416 347.17 102.416 347.87ZM101.1 347.604C101.1 347.119 100.993 346.703 100.778 346.358C100.563 346.003 100.269 345.737 99.8959 345.56C99.5319 345.373 99.1259 345.28 98.6779 345.28C98.0339 345.28 97.4832 345.485 97.0259 345.896C96.5779 346.307 96.3212 346.876 96.2559 347.604H101.1ZM105.372 345.574C105.596 345.135 105.913 344.795 106.324 344.552C106.744 344.309 107.252 344.188 107.85 344.188V345.504H107.514C106.086 345.504 105.372 346.279 105.372 347.828V352H104.098V344.328H105.372V345.574ZM109.978 343.082C109.736 343.082 109.53 342.998 109.362 342.83C109.194 342.662 109.11 342.457 109.11 342.214C109.11 341.971 109.194 341.766 109.362 341.598C109.53 341.43 109.736 341.346 109.978 341.346C110.212 341.346 110.408 341.43 110.566 341.598C110.734 341.766 110.818 341.971 110.818 342.214C110.818 342.457 110.734 342.662 110.566 342.83C110.408 342.998 110.212 343.082 109.978 343.082ZM110.594 344.328V352H109.32V344.328H110.594ZM119.766 347.87C119.766 348.113 119.752 348.369 119.724 348.64H113.592C113.638 349.396 113.895 349.989 114.362 350.418C114.838 350.838 115.412 351.048 116.084 351.048C116.634 351.048 117.092 350.922 117.456 350.67C117.829 350.409 118.09 350.063 118.24 349.634H119.612C119.406 350.371 118.996 350.973 118.38 351.44C117.764 351.897 116.998 352.126 116.084 352.126C115.356 352.126 114.702 351.963 114.124 351.636C113.554 351.309 113.106 350.847 112.78 350.25C112.453 349.643 112.29 348.943 112.29 348.15C112.29 347.357 112.448 346.661 112.766 346.064C113.083 345.467 113.526 345.009 114.096 344.692C114.674 344.365 115.337 344.202 116.084 344.202C116.812 344.202 117.456 344.361 118.016 344.678C118.576 344.995 119.005 345.434 119.304 345.994C119.612 346.545 119.766 347.17 119.766 347.87ZM118.45 347.604C118.45 347.119 118.342 346.703 118.128 346.358C117.913 346.003 117.619 345.737 117.246 345.56C116.882 345.373 116.476 345.28 116.028 345.28C115.384 345.28 114.833 345.485 114.376 345.896C113.928 346.307 113.671 346.876 113.606 347.604H118.45ZM125.185 344.188C126.118 344.188 126.874 344.473 127.453 345.042C128.032 345.602 128.321 346.414 128.321 347.478V352H127.061V347.66C127.061 346.895 126.87 346.311 126.487 345.91C126.104 345.499 125.582 345.294 124.919 345.294C124.247 345.294 123.71 345.504 123.309 345.924C122.917 346.344 122.721 346.955 122.721 347.758V352H121.447V344.328H122.721V345.42C122.973 345.028 123.314 344.725 123.743 344.51C124.182 344.295 124.662 344.188 125.185 344.188ZM129.926 348.15C129.926 347.357 130.085 346.666 130.402 346.078C130.72 345.481 131.158 345.019 131.718 344.692C132.288 344.365 132.936 344.202 133.664 344.202C134.607 344.202 135.382 344.431 135.988 344.888C136.604 345.345 137.01 345.98 137.206 346.792H135.834C135.704 346.325 135.447 345.957 135.064 345.686C134.691 345.415 134.224 345.28 133.664 345.28C132.936 345.28 132.348 345.532 131.9 346.036C131.452 346.531 131.228 347.235 131.228 348.15C131.228 349.074 131.452 349.788 131.9 350.292C132.348 350.796 132.936 351.048 133.664 351.048C134.224 351.048 134.691 350.917 135.064 350.656C135.438 350.395 135.694 350.021 135.834 349.536H137.206C137.001 350.32 136.59 350.95 135.974 351.426C135.358 351.893 134.588 352.126 133.664 352.126C132.936 352.126 132.288 351.963 131.718 351.636C131.158 351.309 130.72 350.847 130.402 350.25C130.085 349.653 129.926 348.953 129.926 348.15ZM145.906 347.87C145.906 348.113 145.892 348.369 145.864 348.64H139.732C139.779 349.396 140.035 349.989 140.502 350.418C140.978 350.838 141.552 351.048 142.224 351.048C142.775 351.048 143.232 350.922 143.596 350.67C143.969 350.409 144.231 350.063 144.38 349.634H145.752C145.547 350.371 145.136 350.973 144.52 351.44C143.904 351.897 143.139 352.126 142.224 352.126C141.496 352.126 140.843 351.963 140.264 351.636C139.695 351.309 139.247 350.847 138.92 350.25C138.593 349.643 138.43 348.943 138.43 348.15C138.43 347.357 138.589 346.661 138.906 346.064C139.223 345.467 139.667 345.009 140.236 344.692C140.815 344.365 141.477 344.202 142.224 344.202C142.952 344.202 143.596 344.361 144.156 344.678C144.716 344.995 145.145 345.434 145.444 345.994C145.752 346.545 145.906 347.17 145.906 347.87ZM144.59 347.604C144.59 347.119 144.483 346.703 144.268 346.358C144.053 346.003 143.759 345.737 143.386 345.56C143.022 345.373 142.616 345.28 142.168 345.28C141.524 345.28 140.973 345.485 140.516 345.896C140.068 346.307 139.811 346.876 139.746 347.604H144.59ZM154.596 354.604C153.7 353.727 153 352.611 152.496 351.258C152.002 349.905 151.754 348.444 151.754 346.876C151.754 345.271 152.016 343.773 152.538 342.382C153.07 340.982 153.826 339.829 154.806 338.924H156.136V339.05C155.091 340.03 154.302 341.211 153.77 342.592C153.248 343.964 152.986 345.392 152.986 346.876C152.986 348.323 153.234 349.704 153.728 351.02C154.232 352.336 154.965 353.489 155.926 354.478V354.604H154.596ZM158.924 342.242V348.416C158.924 349.284 159.134 349.928 159.554 350.348C159.983 350.768 160.576 350.978 161.332 350.978C162.078 350.978 162.662 350.768 163.082 350.348C163.511 349.928 163.726 349.284 163.726 348.416V342.242H165V348.402C165 349.214 164.836 349.9 164.51 350.46C164.183 351.011 163.74 351.421 163.18 351.692C162.629 351.963 162.008 352.098 161.318 352.098C160.627 352.098 160.002 351.963 159.442 351.692C158.891 351.421 158.452 351.011 158.126 350.46C157.808 349.9 157.65 349.214 157.65 348.402V342.242H158.924ZM171.115 347.128L174.111 352H172.669L170.331 348.192L168.105 352H166.691L169.673 347.128L166.677 342.242H168.105L170.457 346.064L172.697 342.242H174.125L171.115 347.128ZM175.414 354.604V354.478C176.376 353.489 177.104 352.336 177.598 351.02C178.102 349.704 178.354 348.323 178.354 346.876C178.354 345.392 178.088 343.964 177.556 342.592C177.034 341.211 176.25 340.03 175.204 339.05V338.924H176.534C177.514 339.829 178.266 340.982 178.788 342.382C179.32 343.773 179.586 345.271 179.586 346.876C179.586 348.444 179.334 349.905 178.83 351.258C178.336 352.611 177.64 353.727 176.744 354.604H175.414ZM188.948 342.242C190.012 342.242 190.931 342.443 191.706 342.844C192.49 343.236 193.087 343.801 193.498 344.538C193.918 345.275 194.128 346.143 194.128 347.142C194.128 348.141 193.918 349.009 193.498 349.746C193.087 350.474 192.49 351.034 191.706 351.426C190.931 351.809 190.012 352 188.948 352H185.91V342.242H188.948ZM188.948 350.95C190.208 350.95 191.169 350.619 191.832 349.956C192.495 349.284 192.826 348.346 192.826 347.142C192.826 345.929 192.49 344.981 191.818 344.3C191.155 343.619 190.199 343.278 188.948 343.278H187.184V350.95H188.948ZM202.808 347.87C202.808 348.113 202.794 348.369 202.766 348.64H196.634C196.681 349.396 196.938 349.989 197.404 350.418C197.88 350.838 198.454 351.048 199.126 351.048C199.677 351.048 200.134 350.922 200.498 350.67C200.872 350.409 201.133 350.063 201.282 349.634H202.654C202.449 350.371 202.038 350.973 201.422 351.44C200.806 351.897 200.041 352.126 199.126 352.126C198.398 352.126 197.745 351.963 197.166 351.636C196.597 351.309 196.149 350.847 195.822 350.25C195.496 349.643 195.332 348.943 195.332 348.15C195.332 347.357 195.491 346.661 195.808 346.064C196.126 345.467 196.569 345.009 197.138 344.692C197.717 344.365 198.38 344.202 199.126 344.202C199.854 344.202 200.498 344.361 201.058 344.678C201.618 344.995 202.048 345.434 202.346 345.994C202.654 346.545 202.808 347.17 202.808 347.87ZM201.492 347.604C201.492 347.119 201.385 346.703 201.17 346.358C200.956 346.003 200.662 345.737 200.288 345.56C199.924 345.373 199.518 345.28 199.07 345.28C198.426 345.28 197.876 345.485 197.418 345.896C196.97 346.307 196.714 346.876 196.648 347.604H201.492ZM207.206 352.126C206.618 352.126 206.091 352.028 205.624 351.832C205.157 351.627 204.789 351.347 204.518 350.992C204.247 350.628 204.098 350.213 204.07 349.746H205.386C205.423 350.129 205.601 350.441 205.918 350.684C206.245 350.927 206.669 351.048 207.192 351.048C207.677 351.048 208.06 350.941 208.34 350.726C208.62 350.511 208.76 350.241 208.76 349.914C208.76 349.578 208.611 349.331 208.312 349.172C208.013 349.004 207.551 348.841 206.926 348.682C206.357 348.533 205.89 348.383 205.526 348.234C205.171 348.075 204.863 347.847 204.602 347.548C204.35 347.24 204.224 346.839 204.224 346.344C204.224 345.952 204.341 345.593 204.574 345.266C204.807 344.939 205.139 344.683 205.568 344.496C205.997 344.3 206.487 344.202 207.038 344.202C207.887 344.202 208.573 344.417 209.096 344.846C209.619 345.275 209.899 345.863 209.936 346.61H208.662C208.634 346.209 208.471 345.887 208.172 345.644C207.883 345.401 207.491 345.28 206.996 345.28C206.539 345.28 206.175 345.378 205.904 345.574C205.633 345.77 205.498 346.027 205.498 346.344C205.498 346.596 205.577 346.806 205.736 346.974C205.904 347.133 206.109 347.263 206.352 347.366C206.604 347.459 206.949 347.567 207.388 347.688C207.939 347.837 208.387 347.987 208.732 348.136C209.077 348.276 209.371 348.491 209.614 348.78C209.866 349.069 209.997 349.447 210.006 349.914C210.006 350.334 209.889 350.712 209.656 351.048C209.423 351.384 209.091 351.65 208.662 351.846C208.242 352.033 207.757 352.126 207.206 352.126ZM212.463 343.082C212.22 343.082 212.015 342.998 211.847 342.83C211.679 342.662 211.595 342.457 211.595 342.214C211.595 341.971 211.679 341.766 211.847 341.598C212.015 341.43 212.22 341.346 212.463 341.346C212.696 341.346 212.892 341.43 213.051 341.598C213.219 341.766 213.303 341.971 213.303 342.214C213.303 342.457 213.219 342.662 213.051 342.83C212.892 342.998 212.696 343.082 212.463 343.082ZM213.079 344.328V352H211.805V344.328H213.079ZM218.414 344.202C219.077 344.202 219.655 344.347 220.15 344.636C220.654 344.925 221.027 345.289 221.27 345.728V344.328H222.558V352.168C222.558 352.868 222.409 353.489 222.11 354.03C221.811 354.581 221.382 355.01 220.822 355.318C220.271 355.626 219.627 355.78 218.89 355.78C217.882 355.78 217.042 355.542 216.37 355.066C215.698 354.59 215.301 353.941 215.18 353.12H216.44C216.58 353.587 216.869 353.96 217.308 354.24C217.747 354.529 218.274 354.674 218.89 354.674C219.59 354.674 220.159 354.455 220.598 354.016C221.046 353.577 221.27 352.961 221.27 352.168V350.558C221.018 351.006 220.645 351.379 220.15 351.678C219.655 351.977 219.077 352.126 218.414 352.126C217.733 352.126 217.112 351.958 216.552 351.622C216.001 351.286 215.567 350.815 215.25 350.208C214.933 349.601 214.774 348.911 214.774 348.136C214.774 347.352 214.933 346.666 215.25 346.078C215.567 345.481 216.001 345.019 216.552 344.692C217.112 344.365 217.733 344.202 218.414 344.202ZM221.27 348.15C221.27 347.571 221.153 347.067 220.92 346.638C220.687 346.209 220.369 345.882 219.968 345.658C219.576 345.425 219.142 345.308 218.666 345.308C218.19 345.308 217.756 345.42 217.364 345.644C216.972 345.868 216.659 346.195 216.426 346.624C216.193 347.053 216.076 347.557 216.076 348.136C216.076 348.724 216.193 349.237 216.426 349.676C216.659 350.105 216.972 350.437 217.364 350.67C217.756 350.894 218.19 351.006 218.666 351.006C219.142 351.006 219.576 350.894 219.968 350.67C220.369 350.437 220.687 350.105 220.92 349.676C221.153 349.237 221.27 348.729 221.27 348.15ZM228.449 344.188C229.382 344.188 230.138 344.473 230.717 345.042C231.295 345.602 231.585 346.414 231.585 347.478V352H230.325V347.66C230.325 346.895 230.133 346.311 229.751 345.91C229.368 345.499 228.845 345.294 228.183 345.294C227.511 345.294 226.974 345.504 226.573 345.924C226.181 346.344 225.985 346.955 225.985 347.758V352H224.711V344.328H225.985V345.42C226.237 345.028 226.577 344.725 227.007 344.51C227.445 344.295 227.926 344.188 228.449 344.188ZM240.666 347.87C240.666 348.113 240.652 348.369 240.624 348.64H234.492C234.539 349.396 234.795 349.989 235.262 350.418C235.738 350.838 236.312 351.048 236.984 351.048C237.535 351.048 237.992 350.922 238.356 350.67C238.729 350.409 238.991 350.063 239.14 349.634H240.512C240.307 350.371 239.896 350.973 239.28 351.44C238.664 351.897 237.899 352.126 236.984 352.126C236.256 352.126 235.603 351.963 235.024 351.636C234.455 351.309 234.007 350.847 233.68 350.25C233.353 349.643 233.19 348.943 233.19 348.15C233.19 347.357 233.349 346.661 233.666 346.064C233.983 345.467 234.427 345.009 234.996 344.692C235.575 344.365 236.237 344.202 236.984 344.202C237.712 344.202 238.356 344.361 238.916 344.678C239.476 344.995 239.905 345.434 240.204 345.994C240.512 346.545 240.666 347.17 240.666 347.87ZM239.35 347.604C239.35 347.119 239.243 346.703 239.028 346.358C238.813 346.003 238.519 345.737 238.146 345.56C237.782 345.373 237.376 345.28 236.928 345.28C236.284 345.28 235.733 345.485 235.276 345.896C234.828 346.307 234.571 346.876 234.506 347.604H239.35ZM243.622 345.574C243.846 345.135 244.163 344.795 244.574 344.552C244.994 344.309 245.502 344.188 246.1 344.188V345.504H245.764C244.336 345.504 243.622 346.279 243.622 347.828V352H242.348V344.328H243.622V345.574ZM247.976 352.084C247.734 352.084 247.528 352 247.36 351.832C247.192 351.664 247.108 351.459 247.108 351.216C247.108 350.973 247.192 350.768 247.36 350.6C247.528 350.432 247.734 350.348 247.976 350.348C248.21 350.348 248.406 350.432 248.564 350.6C248.732 350.768 248.816 350.973 248.816 351.216C248.816 351.459 248.732 351.664 248.564 351.832C248.406 352 248.21 352.084 247.976 352.084Z" fill="black"/>
<path d="M76.64 207.15V220.44C76.64 222.02 77.05 223.21 77.87 224.01C78.71 224.81 79.87 225.21 81.35 225.21C82.85 225.21 84.01 224.81 84.83 224.01C85.67 223.21 86.09 222.02 86.09 220.44V207.15H89.51V220.38C89.51 222.08 89.14 223.52 88.4 224.7C87.66 225.88 86.67 226.76 85.43 227.34C84.19 227.92 82.82 228.21 81.32 228.21C79.82 228.21 78.45 227.92 77.21 227.34C75.99 226.76 75.02 225.88 74.3 224.7C73.58 223.52 73.22 222.08 73.22 220.38V207.15H76.64ZM102.633 207.15V228H99.2129V207.15H102.633ZM123.473 199.68L115.313 233.25H111.953L120.083 199.68H123.473ZM136.423 207.15V220.44C136.423 222.02 136.833 223.21 137.653 224.01C138.493 224.81 139.653 225.21 141.133 225.21C142.633 225.21 143.793 224.81 144.613 224.01C145.453 223.21 145.873 222.02 145.873 220.44V207.15H149.293V220.38C149.293 222.08 148.923 223.52 148.183 224.7C147.443 225.88 146.453 226.76 145.213 227.34C143.973 227.92 142.603 228.21 141.103 228.21C139.603 228.21 138.233 227.92 136.993 227.34C135.773 226.76 134.803 225.88 134.083 224.7C133.363 223.52 133.003 222.08 133.003 220.38V207.15H136.423ZM168.566 217.59L175.046 228H171.206L166.496 220.44L162.086 228H158.276L164.756 217.59L158.246 207.15H162.086L166.826 214.77L171.266 207.15H175.076L168.566 217.59ZM80.06 244.15C82.28 244.15 84.22 244.58 85.88 245.44C87.56 246.28 88.85 247.5 89.75 249.1C90.67 250.68 91.13 252.53 91.13 254.65C91.13 256.77 90.67 258.61 89.75 260.17C88.85 261.73 87.56 262.93 85.88 263.77C84.22 264.59 82.28 265 80.06 265H73.25V244.15H80.06ZM80.06 262.21C82.5 262.21 84.37 261.55 85.67 260.23C86.97 258.91 87.62 257.05 87.62 254.65C87.62 252.23 86.97 250.34 85.67 248.98C84.37 247.62 82.5 246.94 80.06 246.94H76.67V262.21H80.06ZM114.92 256.33C114.92 256.95 114.88 257.51 114.8 258.01H102.17C102.27 259.33 102.76 260.39 103.64 261.19C104.52 261.99 105.6 262.39 106.88 262.39C108.72 262.39 110.02 261.62 110.78 260.08H114.47C113.97 261.6 113.06 262.85 111.74 263.83C110.44 264.79 108.82 265.27 106.88 265.27C105.3 265.27 103.88 264.92 102.62 264.22C101.38 263.5 100.4 262.5 99.6795 261.22C98.9795 259.92 98.6295 258.42 98.6295 256.72C98.6295 255.02 98.9695 253.53 99.6495 252.25C100.35 250.95 101.32 249.95 102.56 249.25C103.82 248.55 105.26 248.2 106.88 248.2C108.44 248.2 109.83 248.54 111.05 249.22C112.27 249.9 113.22 250.86 113.9 252.1C114.58 253.32 114.92 254.73 114.92 256.33ZM111.35 255.25C111.33 253.99 110.88 252.98 110 252.22C109.12 251.46 108.03 251.08 106.73 251.08C105.55 251.08 104.54 251.46 103.7 252.22C102.86 252.96 102.36 253.97 102.2 255.25H111.35ZM129.535 265.27C128.235 265.27 127.065 265.04 126.025 264.58C125.005 264.1 124.195 263.46 123.595 262.66C122.995 261.84 122.675 260.93 122.635 259.93H126.175C126.235 260.63 126.565 261.22 127.165 261.7C127.785 262.16 128.555 262.39 129.475 262.39C130.435 262.39 131.175 262.21 131.695 261.85C132.235 261.47 132.505 260.99 132.505 260.41C132.505 259.79 132.205 259.33 131.605 259.03C131.025 258.73 130.095 258.4 128.815 258.04C127.575 257.7 126.565 257.37 125.785 257.05C125.005 256.73 124.325 256.24 123.745 255.58C123.185 254.92 122.905 254.05 122.905 252.97C122.905 252.09 123.165 251.29 123.685 250.57C124.205 249.83 124.945 249.25 125.905 248.83C126.885 248.41 128.005 248.2 129.265 248.2C131.145 248.2 132.655 248.68 133.795 249.64C134.955 250.58 135.575 251.87 135.655 253.51H132.235C132.175 252.77 131.875 252.18 131.335 251.74C130.795 251.3 130.065 251.08 129.145 251.08C128.245 251.08 127.555 251.25 127.075 251.59C126.595 251.93 126.355 252.38 126.355 252.94C126.355 253.38 126.515 253.75 126.835 254.05C127.155 254.35 127.545 254.59 128.005 254.77C128.465 254.93 129.145 255.14 130.045 255.4C131.245 255.72 132.225 256.05 132.985 256.39C133.765 256.71 134.435 257.19 134.995 257.83C135.555 258.47 135.845 259.32 135.865 260.38C135.865 261.32 135.605 262.16 135.085 262.9C134.565 263.64 133.825 264.22 132.865 264.64C131.925 265.06 130.815 265.27 129.535 265.27ZM146.551 246.28C145.931 246.28 145.411 246.07 144.991 245.65C144.571 245.23 144.361 244.71 144.361 244.09C144.361 243.47 144.571 242.95 144.991 242.53C145.411 242.11 145.931 241.9 146.551 241.9C147.151 241.9 147.661 242.11 148.081 242.53C148.501 242.95 148.711 243.47 148.711 244.09C148.711 244.71 148.501 245.23 148.081 245.65C147.661 246.07 147.151 246.28 146.551 246.28ZM148.231 248.47V265H144.811V248.47H148.231ZM164.631 248.2C165.911 248.2 167.041 248.46 168.021 248.98C169.021 249.48 169.801 250.11 170.361 250.87V248.47H173.811V265.27C173.811 266.79 173.491 268.14 172.851 269.32C172.211 270.52 171.281 271.46 170.061 272.14C168.861 272.82 167.421 273.16 165.741 273.16C163.501 273.16 161.641 272.63 160.161 271.57C158.681 270.53 157.841 269.11 157.641 267.31H161.031C161.291 268.17 161.841 268.86 162.681 269.38C163.541 269.92 164.561 270.19 165.741 270.19C167.121 270.19 168.231 269.77 169.071 268.93C169.931 268.09 170.361 266.87 170.361 265.27V262.51C169.781 263.29 168.991 263.95 167.991 264.49C167.011 265.01 165.891 265.27 164.631 265.27C163.191 265.27 161.871 264.91 160.671 264.19C159.491 263.45 158.551 262.43 157.851 261.13C157.171 259.81 156.831 258.32 156.831 256.66C156.831 255 157.171 253.53 157.851 252.25C158.551 250.97 159.491 249.98 160.671 249.28C161.871 248.56 163.191 248.2 164.631 248.2ZM170.361 256.72C170.361 255.58 170.121 254.59 169.641 253.75C169.181 252.91 168.571 252.27 167.811 251.83C167.051 251.39 166.231 251.17 165.351 251.17C164.471 251.17 163.651 251.39 162.891 251.83C162.131 252.25 161.511 252.88 161.031 253.72C160.571 254.54 160.341 255.52 160.341 256.66C160.341 257.8 160.571 258.8 161.031 259.66C161.511 260.52 162.131 261.18 162.891 261.64C163.671 262.08 164.491 262.3 165.351 262.3C166.231 262.3 167.051 262.08 167.811 261.64C168.571 261.2 169.181 260.56 169.641 259.72C170.121 258.86 170.361 257.86 170.361 256.72ZM191.893 248.2C193.193 248.2 194.353 248.47 195.373 249.01C196.413 249.55 197.223 250.35 197.803 251.41C198.383 252.47 198.673 253.75 198.673 255.25V265H195.283V255.76C195.283 254.28 194.913 253.15 194.173 252.37C193.433 251.57 192.423 251.17 191.143 251.17C189.863 251.17 188.843 251.57 188.083 252.37C187.343 253.15 186.973 254.28 186.973 255.76V265H183.553V248.47H186.973V250.36C187.533 249.68 188.243 249.15 189.103 248.77C189.983 248.39 190.913 248.2 191.893 248.2Z" fill="#050505"/>
<path d="M209.185 39H73.753C73.0232 39 72.3233 39.2898 71.807 39.8056C71.2908 40.3215 71.0005 41.0212 71 41.751V70.067C71 70.7971 71.29 71.4974 71.8063 72.0137C72.3226 72.53 73.0229 72.82 73.753 72.82H209.185C209.915 72.82 210.615 72.53 211.132 72.0137C211.648 71.4974 211.938 70.7971 211.938 70.067V41.751C211.937 41.0212 211.647 40.3215 211.131 39.8056C210.615 39.2898 209.915 39 209.185 39ZM206.432 67.314H76.505V44.505H206.433L206.432 67.314Z" fill="white"/>
<path d="M200.214 61.0619L197.966 58.8139C198.906 56.9483 199.151 54.8088 198.657 52.7791C198.162 50.7493 196.961 48.9621 195.268 47.738C193.575 46.5138 191.501 45.9327 189.419 46.0989C187.336 46.2651 185.381 47.1678 183.904 48.645C182.427 50.1222 181.524 52.0774 181.358 54.1598C181.192 56.2423 181.773 58.3159 182.997 60.0087C184.221 61.7015 186.008 62.9029 188.038 63.3974C190.068 63.8918 192.207 63.647 194.073 62.7069L196.321 64.9549C196.84 65.4601 197.536 65.7407 198.26 65.736C198.984 65.7313 199.677 65.4416 200.189 64.9297C200.701 64.4178 200.99 63.7249 200.995 63.001C201 62.277 200.719 61.5804 200.214 61.0619ZM192.438 57.1789C191.9 57.7168 191.192 58.0515 190.435 58.1261C189.678 58.2007 188.919 58.0105 188.286 57.5878C187.654 57.1652 187.187 56.5364 186.967 55.8085C186.746 55.0805 186.784 54.2985 187.075 53.5957C187.366 52.8929 187.892 52.3128 188.563 51.9542C189.234 51.5956 190.008 51.4807 190.754 51.6291C191.5 51.7775 192.172 52.18 192.655 52.768C193.137 53.356 193.401 54.0932 193.401 54.8539C193.402 55.2858 193.318 55.7138 193.152 56.1129C192.987 56.5119 192.744 56.8743 192.438 57.1789Z" fill="white"/>
<path d="M169.641 60.355C169.606 60.1786 169.553 60.0061 169.484 59.84C169.415 59.6736 169.33 59.5142 169.231 59.364C169.131 59.2139 169.017 59.0739 168.89 58.946C168.763 58.8184 168.623 58.7041 168.472 58.605C168.322 58.5051 168.163 58.4204 167.996 58.352C167.83 58.2831 167.657 58.2305 167.481 58.195C167.126 58.1235 166.76 58.1235 166.405 58.195C165.873 58.304 165.383 58.5648 164.996 58.946C164.87 59.0744 164.755 59.2144 164.655 59.364C164.556 59.5143 164.471 59.6736 164.402 59.84C164.333 60.0062 164.281 60.1787 164.245 60.355C164.175 60.7103 164.175 61.0757 164.245 61.431C164.281 61.607 164.333 61.7791 164.402 61.945C164.54 62.2793 164.742 62.5834 164.997 62.84C165.126 62.9672 165.267 63.0814 165.418 63.181C165.567 63.2803 165.726 63.365 165.891 63.434C166.057 63.5021 166.23 63.5547 166.406 63.591C166.94 63.6979 167.494 63.6432 167.997 63.434C168.163 63.3651 168.323 63.2803 168.473 63.181C168.624 63.082 168.764 62.9677 168.891 62.84C169.405 62.3223 169.694 61.6233 169.697 60.894C169.696 60.7129 169.677 60.5324 169.641 60.355Z" fill="white"/>
<path d="M156.506 58.1411H99.296C98.5751 58.1549 97.8883 58.4509 97.3833 58.9656C96.8784 59.4803 96.5955 60.1726 96.5955 60.8936C96.5955 61.6147 96.8784 62.3069 97.3833 62.8216C97.8883 63.3363 98.5751 63.6324 99.296 63.6461H156.506C157.227 63.6324 157.914 63.3363 158.419 62.8216C158.924 62.3069 159.207 61.6147 159.207 60.8936C159.207 60.1726 158.924 59.4803 158.419 58.9656C157.914 58.4509 157.227 58.1549 156.506 58.1411Z" fill="white"/>
<path d="M157.66 76.7429H74.078C73.3479 76.7429 72.6476 77.033 72.1313 77.5493C71.615 78.0655 71.325 78.7658 71.325 79.4959V133.779C71.325 134.509 71.615 135.209 72.1313 135.726C72.6476 136.242 73.3479 136.532 74.078 136.532H157.66C158.39 136.532 159.09 136.242 159.607 135.726C160.123 135.209 160.413 134.509 160.413 133.779V79.4959C160.413 78.7658 160.123 78.0655 159.607 77.5493C159.09 77.033 158.39 76.7429 157.66 76.7429ZM104.529 131.026H81.164L96.9 112.807L108.3 126.007L104.529 131.026ZM111.411 131.026L116.544 124.179H129.891C130.612 124.165 131.299 123.869 131.804 123.354C132.309 122.84 132.592 122.147 132.592 121.426C132.592 120.705 132.309 120.013 131.804 119.498C131.299 118.984 130.612 118.688 129.891 118.674H120.673L122.604 116.099H139.888L151.082 131.023L111.411 131.026ZM126.733 110.597L131.244 104.579L135.757 110.596L126.733 110.597ZM154.908 126.952L133.444 98.3399C133.187 97.9989 132.855 97.7222 132.473 97.5317C132.092 97.3411 131.671 97.2419 131.244 97.2419C130.817 97.2419 130.396 97.3411 130.015 97.5317C129.633 97.7222 129.301 97.9989 129.044 98.3399L111.677 121.495L98.983 106.795C98.7247 106.496 98.4049 106.256 98.0454 106.091C97.686 105.927 97.2953 105.841 96.9 105.841C96.5047 105.841 96.114 105.927 95.7546 106.091C95.3951 106.256 95.0753 106.496 94.817 106.795L76.83 127.62V82.2489H154.908V126.952Z" fill="white"/>
<path d="M108.891 85.4089C106.966 85.4087 105.084 85.9794 103.484 87.0486C101.883 88.1178 100.636 89.6377 99.8991 91.416C99.1623 93.1942 98.9695 95.1511 99.3449 97.039C99.7203 98.9268 100.647 100.661 102.008 102.022C103.369 103.383 105.103 104.31 106.991 104.686C108.879 105.061 110.836 104.869 112.614 104.132C114.392 103.396 115.912 102.148 116.982 100.548C118.051 98.9474 118.622 97.0658 118.622 95.1409C118.619 92.5608 117.593 90.0872 115.769 88.2626C113.945 86.4381 111.471 85.4118 108.891 85.4089ZM108.891 99.3669C108.055 99.3669 107.238 99.1191 106.543 98.6547C105.848 98.1904 105.307 97.5304 104.987 96.7582C104.667 95.986 104.583 95.1363 104.746 94.3165C104.909 93.4967 105.312 92.7437 105.903 92.1527C106.494 91.5617 107.247 91.1592 108.067 90.9961C108.886 90.8331 109.736 90.9168 110.508 91.2366C111.28 91.5565 111.94 92.0981 112.405 92.7931C112.869 93.4881 113.117 94.3051 113.117 95.1409C113.115 96.2607 112.668 97.3338 111.876 98.1251C111.084 98.9165 110.011 99.3616 108.891 99.3629V99.3669Z" fill="white"/>
<path d="M209.186 76.7429H166.88C166.15 76.7429 165.45 77.033 164.933 77.5493C164.417 78.0655 164.127 78.7658 164.127 79.4959V133.779C164.127 134.509 164.417 135.209 164.933 135.726C165.45 136.242 166.15 136.532 166.88 136.532H209.186C209.916 136.532 210.616 136.242 211.133 135.726C211.649 135.209 211.939 134.509 211.939 133.779V79.4959C211.939 78.7658 211.649 78.0655 211.133 77.5493C210.616 77.033 209.916 76.7429 209.186 76.7429ZM206.433 131.026H169.633V82.2489H206.433V131.026Z" fill="white"/>
<path d="M200.023 86.783H176.041C175.675 86.776 175.312 86.842 174.971 86.9772C174.631 87.1124 174.322 87.3141 174.06 87.5703C173.799 87.8266 173.592 88.1324 173.45 88.4698C173.308 88.8072 173.236 89.1695 173.236 89.5355C173.236 89.9014 173.308 90.2637 173.45 90.6011C173.592 90.9385 173.799 91.2443 174.06 91.5006C174.322 91.7569 174.631 91.9585 174.971 92.0937C175.312 92.2289 175.675 92.2949 176.041 92.288H200.023C200.744 92.2742 201.431 91.9782 201.936 91.4635C202.441 90.9488 202.724 90.2565 202.724 89.5355C202.724 88.8144 202.441 88.1221 201.936 87.6074C201.431 87.0927 200.744 86.7967 200.023 86.783Z" fill="white"/>
<path d="M200.023 97.8301H176.041C175.675 97.8231 175.312 97.8892 174.971 98.0243C174.631 98.1595 174.322 98.3612 174.06 98.6175C173.799 98.8738 173.592 99.1795 173.45 99.517C173.308 99.8544 173.236 100.217 173.236 100.583C173.236 100.949 173.308 101.311 173.45 101.648C173.592 101.986 173.799 102.291 174.06 102.548C174.322 102.804 174.631 103.006 174.971 103.141C175.312 103.276 175.675 103.342 176.041 103.335H200.023C200.744 103.321 201.431 103.025 201.936 102.511C202.441 101.996 202.724 101.304 202.724 100.583C202.724 99.8615 202.441 99.1693 201.936 98.6546C201.431 98.1399 200.744 97.8438 200.023 97.8301Z" fill="white"/>
<path d="M200.023 108.875H176.041C175.675 108.868 175.312 108.934 174.971 109.069C174.631 109.204 174.322 109.406 174.06 109.662C173.799 109.919 173.592 110.224 173.45 110.562C173.308 110.899 173.236 111.262 173.236 111.628C173.236 111.993 173.308 112.356 173.45 112.693C173.592 113.031 173.799 113.336 174.06 113.593C174.322 113.849 174.631 114.051 174.971 114.186C175.312 114.321 175.675 114.387 176.041 114.38H200.023C200.744 114.366 201.431 114.07 201.936 113.556C202.441 113.041 202.724 112.349 202.724 111.628C202.724 110.906 202.441 110.214 201.936 109.699C201.431 109.185 200.744 108.889 200.023 108.875Z" fill="white"/>
<path d="M178.74 122.14C178.705 121.964 178.652 121.791 178.583 121.625C178.514 121.459 178.429 121.3 178.33 121.149C177.977 120.619 177.45 120.228 176.841 120.043C176.231 119.859 175.576 119.891 174.988 120.136C174.822 120.205 174.662 120.29 174.512 120.389C174.21 120.588 173.951 120.847 173.752 121.149C173.653 121.3 173.568 121.459 173.499 121.625C173.36 121.959 173.288 122.317 173.288 122.678C173.288 123.04 173.36 123.397 173.499 123.731C173.568 123.897 173.653 124.057 173.752 124.207C173.951 124.509 174.21 124.768 174.512 124.967C174.663 125.066 174.822 125.15 174.988 125.22C175.154 125.289 175.327 125.341 175.503 125.377C175.947 125.468 176.406 125.446 176.84 125.315C177.273 125.184 177.667 124.947 177.986 124.625C178.244 124.37 178.448 124.066 178.586 123.73C178.725 123.396 178.796 123.038 178.795 122.676C178.794 122.496 178.776 122.316 178.74 122.14Z" fill="white"/>
<path d="M200.019 119.925H186.477C185.756 119.939 185.069 120.235 184.564 120.75C184.059 121.264 183.776 121.956 183.776 122.678C183.776 123.399 184.059 124.091 184.564 124.606C185.069 125.12 185.756 125.416 186.477 125.43H200.019C200.74 125.416 201.427 125.12 201.932 124.606C202.437 124.091 202.72 123.399 202.72 122.678C202.72 121.956 202.437 121.264 201.932 120.75C201.427 120.235 200.74 119.939 200.019 119.925Z" fill="white"/>
<path d="M116.384 140.437H74.078C73.3485 140.437 72.6489 140.726 72.1327 141.242C71.6166 141.757 71.3261 142.457 71.325 143.186V171.539C71.325 172.269 71.615 172.969 72.1313 173.486C72.6476 174.002 73.3479 174.292 74.078 174.292H116.384C117.114 174.292 117.814 174.002 118.331 173.486C118.847 172.969 119.137 172.269 119.137 171.539V143.186C119.136 142.457 118.845 141.757 118.329 141.242C117.813 140.726 117.113 140.437 116.384 140.437ZM113.631 168.786H76.83V145.942H113.63L113.631 168.786Z" fill="white"/>
<path d="M209.185 140.437H125.979C125.249 140.437 124.549 140.727 124.032 141.243C123.516 141.76 123.226 142.46 123.226 143.19V171.543C123.226 172.273 123.516 172.973 124.032 173.49C124.549 174.006 125.249 174.296 125.979 174.296H209.186C209.916 174.296 210.616 174.006 211.133 173.49C211.649 172.973 211.939 172.273 211.939 171.543V143.186C211.938 142.456 211.647 141.757 211.131 141.242C210.615 140.726 209.915 140.437 209.185 140.437ZM206.433 168.786H128.733V145.942H206.433V168.786Z" fill="white"/>
<path d="M141.27 156.83C141.234 156.654 141.182 156.481 141.113 156.315C141.045 156.148 140.96 155.989 140.86 155.839C140.661 155.537 140.402 155.278 140.1 155.079C139.799 154.88 139.462 154.74 139.109 154.666C138.754 154.597 138.388 154.597 138.033 154.666C137.857 154.703 137.684 154.757 137.518 154.826C137.352 154.895 137.194 154.98 137.044 155.079C136.893 155.178 136.753 155.292 136.626 155.42C136.498 155.548 136.383 155.688 136.282 155.838C136.182 155.988 136.097 156.147 136.029 156.314C135.96 156.48 135.908 156.653 135.872 156.829C135.802 157.183 135.802 157.548 135.872 157.902C135.908 158.079 135.961 158.252 136.029 158.419C136.098 158.585 136.183 158.743 136.282 158.892C136.383 159.042 136.498 159.183 136.626 159.311C137.144 159.825 137.843 160.115 138.572 160.117C138.752 160.118 138.932 160.1 139.109 160.065C139.285 160.029 139.458 159.975 139.624 159.905C139.791 159.838 139.951 159.753 140.1 159.652C140.402 159.453 140.661 159.194 140.86 158.892C140.959 158.743 141.044 158.584 141.113 158.418C141.181 158.251 141.234 158.078 141.27 157.901C141.343 157.547 141.343 157.182 141.27 156.828V156.83Z" fill="white"/>
<path d="M195.234 154.614H149.008C148.278 154.614 147.578 154.904 147.061 155.42C146.545 155.937 146.255 156.637 146.255 157.367C146.255 158.097 146.545 158.797 147.061 159.314C147.578 159.83 148.278 160.12 149.008 160.12H195.234C195.964 160.12 196.664 159.83 197.181 159.314C197.697 158.797 197.987 158.097 197.987 157.367C197.987 156.637 197.697 155.937 197.181 155.42C196.664 154.904 195.964 154.614 195.234 154.614Z" fill="white"/>
</svg>
