<svg width="244" height="60" viewBox="0 0 244 60" fill="none" xmlns="http://www.w3.org/2000/svg">
<path d="M70.12 24.72C70.12 26.2133 69.76 27.6133 69.04 28.92C68.3467 30.2267 67.24 31.28 65.72 32.08C64.2267 32.88 62.3333 33.28 60.04 33.28H55.36V44H49.76V16.08H60.04C62.2 16.08 64.04 16.4533 65.56 17.2C67.08 17.9467 68.2133 18.9733 68.96 20.28C69.7333 21.5867 70.12 23.0667 70.12 24.72ZM59.8 28.76C61.3467 28.76 62.4933 28.4133 63.24 27.72C63.9867 27 64.36 26 64.36 24.72C64.36 22 62.84 20.64 59.8 20.64H55.36V28.76H59.8ZM76.9359 19.2C75.9493 19.2 75.1226 18.8933 74.4559 18.28C73.8159 17.64 73.4959 16.8533 73.4959 15.92C73.4959 14.9867 73.8159 14.2133 74.4559 13.6C75.1226 12.96 75.9493 12.64 76.9359 12.64C77.9226 12.64 78.7359 12.96 79.3759 13.6C80.0426 14.2133 80.3759 14.9867 80.3759 15.92C80.3759 16.8533 80.0426 17.64 79.3759 18.28C78.7359 18.8933 77.9226 19.2 76.9359 19.2ZM79.6959 21.84V44H74.0959V21.84H79.6959ZM83.7887 32.92C83.7887 30.6267 84.2554 28.6267 85.1888 26.92C86.1221 25.1867 87.4154 23.8533 89.0688 22.92C90.7221 21.96 92.6154 21.48 94.7488 21.48C97.4954 21.48 99.7621 22.1733 101.549 23.56C103.362 24.92 104.575 26.84 105.189 29.32H99.1488C98.8288 28.36 98.2821 27.6133 97.5088 27.08C96.7621 26.52 95.8288 26.24 94.7088 26.24C93.1088 26.24 91.8421 26.8267 90.9088 28C89.9754 29.1467 89.5088 30.7867 89.5088 32.92C89.5088 35.0267 89.9754 36.6667 90.9088 37.84C91.8421 38.9867 93.1088 39.56 94.7088 39.56C96.9754 39.56 98.4554 38.5467 99.1488 36.52H105.189C104.575 38.92 103.362 40.8267 101.549 42.24C99.7354 43.6533 97.4688 44.36 94.7488 44.36C92.6154 44.36 90.7221 43.8933 89.0688 42.96C87.4154 42 86.1221 40.6667 85.1888 38.96C84.2554 37.2267 83.7887 35.2133 83.7887 32.92ZM115.811 26.44V37.16C115.811 37.9067 115.985 38.4533 116.331 38.8C116.705 39.12 117.318 39.28 118.171 39.28H120.771V44H117.251C112.531 44 110.171 41.7067 110.171 37.12V26.44H107.531V21.84H110.171V16.36H115.811V21.84H120.771V26.44H115.811ZM145.719 21.84V44H140.079V41.2C139.359 42.16 138.412 42.92 137.239 43.48C136.092 44.0133 134.839 44.28 133.479 44.28C131.746 44.28 130.212 43.92 128.879 43.2C127.546 42.4533 126.492 41.3733 125.719 39.96C124.972 38.52 124.599 36.8133 124.599 34.84V21.84H130.199V34.04C130.199 35.8 130.639 37.16 131.519 38.12C132.399 39.0533 133.599 39.52 135.119 39.52C136.666 39.52 137.879 39.0533 138.759 38.12C139.639 37.16 140.079 35.8 140.079 34.04V21.84H145.719ZM156.844 25.28C157.564 24.1067 158.498 23.1867 159.644 22.52C160.818 21.8533 162.151 21.52 163.644 21.52V27.4H162.164C160.404 27.4 159.071 27.8133 158.164 28.64C157.284 29.4667 156.844 30.9067 156.844 32.96V44H151.244V21.84H156.844V25.28ZM188.016 32.44C188.016 33.24 187.963 33.96 187.856 34.6H171.656C171.79 36.2 172.35 37.4533 173.336 38.36C174.323 39.2667 175.536 39.72 176.976 39.72C179.056 39.72 180.536 38.8267 181.416 37.04H187.456C186.816 39.1733 185.59 40.9333 183.776 42.32C181.963 43.68 179.736 44.36 177.096 44.36C174.963 44.36 173.043 43.8933 171.336 42.96C169.656 42 168.336 40.6533 167.376 38.92C166.443 37.1867 165.976 35.1867 165.976 32.92C165.976 30.6267 166.443 28.6133 167.376 26.88C168.31 25.1467 169.616 23.8133 171.296 22.88C172.976 21.9467 174.91 21.48 177.096 21.48C179.203 21.48 181.083 21.9333 182.736 22.84C184.416 23.7467 185.71 25.04 186.616 26.72C187.55 28.3733 188.016 30.28 188.016 32.44ZM182.216 30.84C182.19 29.4 181.67 28.2533 180.656 27.4C179.643 26.52 178.403 26.08 176.936 26.08C175.55 26.08 174.376 26.5067 173.416 27.36C172.483 28.1867 171.91 29.3467 171.696 30.84H182.216ZM200.584 44.36C198.77 44.36 197.144 44.04 195.704 43.4C194.264 42.7333 193.117 41.84 192.264 40.72C191.437 39.6 190.984 38.36 190.904 37H196.544C196.65 37.8533 197.064 38.56 197.784 39.12C198.53 39.68 199.45 39.96 200.544 39.96C201.61 39.96 202.437 39.7467 203.024 39.32C203.637 38.8933 203.944 38.3467 203.944 37.68C203.944 36.96 203.57 36.4267 202.824 36.08C202.104 35.7067 200.944 35.3067 199.344 34.88C197.69 34.48 196.33 34.0667 195.264 33.64C194.224 33.2133 193.317 32.56 192.544 31.68C191.797 30.8 191.424 29.6133 191.424 28.12C191.424 26.8933 191.77 25.7733 192.464 24.76C193.184 23.7467 194.197 22.9467 195.504 22.36C196.837 21.7733 198.397 21.48 200.184 21.48C202.824 21.48 204.93 22.1467 206.504 23.48C208.077 24.7867 208.944 26.56 209.104 28.8H203.744C203.664 27.92 203.29 27.2267 202.624 26.72C201.984 26.1867 201.117 25.92 200.024 25.92C199.01 25.92 198.224 26.1067 197.664 26.48C197.13 26.8533 196.864 27.3733 196.864 28.04C196.864 28.7867 197.237 29.36 197.984 29.76C198.73 30.1333 199.89 30.52 201.464 30.92C203.064 31.32 204.384 31.7333 205.424 32.16C206.464 32.5867 207.357 33.2533 208.104 34.16C208.877 35.04 209.277 36.2133 209.304 37.68C209.304 38.96 208.944 40.1067 208.224 41.12C207.53 42.1333 206.517 42.9333 205.184 43.52C203.877 44.08 202.344 44.36 200.584 44.36Z" fill="#196046"/>
<line y1="59.5" x2="244" y2="59.5" stroke="black"/>
</svg>
