<svg width="244" height="60" viewBox="0 0 244 60" fill="none" xmlns="http://www.w3.org/2000/svg">
<path d="M80.12 24.72C80.12 26.2133 79.76 27.6133 79.04 28.92C78.3467 30.2267 77.24 31.28 75.72 32.08C74.2267 32.88 72.3333 33.28 70.04 33.28H65.36V44H59.76V16.08H70.04C72.2 16.08 74.04 16.4533 75.56 17.2C77.08 17.9467 78.2133 18.9733 78.96 20.28C79.7333 21.5867 80.12 23.0667 80.12 24.72ZM69.8 28.76C71.3467 28.76 72.4933 28.4133 73.24 27.72C73.9867 27 74.36 26 74.36 24.72C74.36 22 72.84 20.64 69.8 20.64H65.36V28.76H69.8ZM93.9359 44.36C91.8026 44.36 89.8826 43.8933 88.1759 42.96C86.4693 42 85.1226 40.6533 84.1359 38.92C83.1759 37.1867 82.6959 35.1867 82.6959 32.92C82.6959 30.6533 83.1893 28.6533 84.1759 26.92C85.1893 25.1867 86.5626 23.8533 88.2959 22.92C90.0293 21.96 91.9626 21.48 94.0959 21.48C96.2293 21.48 98.1626 21.96 99.8959 22.92C101.629 23.8533 102.989 25.1867 103.976 26.92C104.989 28.6533 105.496 30.6533 105.496 32.92C105.496 35.1867 104.976 37.1867 103.936 38.92C102.923 40.6533 101.536 42 99.7759 42.96C98.0426 43.8933 96.0959 44.36 93.9359 44.36ZM93.9359 39.48C94.9493 39.48 95.8959 39.24 96.7759 38.76C97.6826 38.2533 98.4026 37.5067 98.9359 36.52C99.4693 35.5333 99.7359 34.3333 99.7359 32.92C99.7359 30.8133 99.1759 29.2 98.0559 28.08C96.9626 26.9333 95.6159 26.36 94.0159 26.36C92.4159 26.36 91.0693 26.9333 89.9759 28.08C88.9093 29.2 88.3759 30.8133 88.3759 32.92C88.3759 35.0267 88.8959 36.6533 89.9359 37.8C91.0026 38.92 92.3359 39.48 93.9359 39.48ZM118.084 44.36C116.27 44.36 114.644 44.04 113.204 43.4C111.764 42.7333 110.617 41.84 109.764 40.72C108.937 39.6 108.484 38.36 108.404 37H114.044C114.15 37.8533 114.564 38.56 115.284 39.12C116.03 39.68 116.95 39.96 118.044 39.96C119.11 39.96 119.937 39.7467 120.524 39.32C121.137 38.8933 121.444 38.3467 121.444 37.68C121.444 36.96 121.07 36.4267 120.324 36.08C119.604 35.7067 118.444 35.3067 116.844 34.88C115.19 34.48 113.83 34.0667 112.764 33.64C111.724 33.2133 110.817 32.56 110.044 31.68C109.297 30.8 108.924 29.6133 108.924 28.12C108.924 26.8933 109.27 25.7733 109.964 24.76C110.684 23.7467 111.697 22.9467 113.004 22.36C114.337 21.7733 115.897 21.48 117.684 21.48C120.324 21.48 122.43 22.1467 124.004 23.48C125.577 24.7867 126.444 26.56 126.604 28.8H121.244C121.164 27.92 120.79 27.2267 120.124 26.72C119.484 26.1867 118.617 25.92 117.524 25.92C116.51 25.92 115.724 26.1067 115.164 26.48C114.63 26.8533 114.364 27.3733 114.364 28.04C114.364 28.7867 114.737 29.36 115.484 29.76C116.23 30.1333 117.39 30.52 118.964 30.92C120.564 31.32 121.884 31.7333 122.924 32.16C123.964 32.5867 124.857 33.2533 125.604 34.16C126.377 35.04 126.777 36.2133 126.804 37.68C126.804 38.96 126.444 40.1067 125.724 41.12C125.03 42.1333 124.017 42.9333 122.684 43.52C121.377 44.08 119.844 44.36 118.084 44.36ZM137.921 26.44V37.16C137.921 37.9067 138.094 38.4533 138.441 38.8C138.814 39.12 139.427 39.28 140.281 39.28H142.881V44H139.361C134.641 44 132.281 41.7067 132.281 37.12V26.44H129.641V21.84H132.281V16.36H137.921V21.84H142.881V26.44H137.921ZM167.508 32.44C167.508 33.24 167.455 33.96 167.348 34.6H151.148C151.282 36.2 151.842 37.4533 152.828 38.36C153.815 39.2667 155.028 39.72 156.468 39.72C158.548 39.72 160.028 38.8267 160.908 37.04H166.948C166.308 39.1733 165.082 40.9333 163.268 42.32C161.455 43.68 159.228 44.36 156.588 44.36C154.455 44.36 152.535 43.8933 150.828 42.96C149.148 42 147.828 40.6533 146.868 38.92C145.935 37.1867 145.468 35.1867 145.468 32.92C145.468 30.6267 145.935 28.6133 146.868 26.88C147.802 25.1467 149.108 23.8133 150.788 22.88C152.468 21.9467 154.402 21.48 156.588 21.48C158.695 21.48 160.575 21.9333 162.228 22.84C163.908 23.7467 165.202 25.04 166.108 26.72C167.042 28.3733 167.508 30.28 167.508 32.44ZM161.708 30.84C161.682 29.4 161.162 28.2533 160.148 27.4C159.135 26.52 157.895 26.08 156.428 26.08C155.042 26.08 153.868 26.5067 152.908 27.36C151.975 28.1867 151.402 29.3467 151.188 30.84H161.708ZM177.196 25.28C177.916 24.1067 178.849 23.1867 179.996 22.52C181.169 21.8533 182.503 21.52 183.996 21.52V27.4H182.516C180.756 27.4 179.423 27.8133 178.516 28.64C177.636 29.4667 177.196 30.9067 177.196 32.96V44H171.596V21.84H177.196V25.28Z" fill="#196046"/>
<line y1="59.5" x2="244" y2="59.5" stroke="black"/>
</svg>
