<svg width="244" height="60" viewBox="0 0 244 60" fill="none" xmlns="http://www.w3.org/2000/svg">
<path d="M83.4 44.28C81.4533 44.28 79.6933 43.9467 78.12 43.28C76.5733 42.6133 75.3467 41.6533 74.44 40.4C73.5333 39.1467 73.0667 37.6667 73.04 35.96H79.04C79.12 37.1067 79.52 38.0133 80.24 38.68C80.9867 39.3467 82 39.68 83.28 39.68C84.5867 39.68 85.6133 39.3733 86.36 38.76C87.1067 38.12 87.48 37.2933 87.48 36.28C87.48 35.4533 87.2267 34.7733 86.72 34.24C86.2133 33.7067 85.5733 33.2933 84.8 33C84.0533 32.68 83.0133 32.3333 81.68 31.96C79.8667 31.4267 78.3867 30.9067 77.24 30.4C76.12 29.8667 75.1467 29.08 74.32 28.04C73.52 26.9733 73.12 25.56 73.12 23.8C73.12 22.1467 73.5333 20.7067 74.36 19.48C75.1867 18.2533 76.3467 17.32 77.84 16.68C79.3333 16.0133 81.04 15.68 82.96 15.68C85.84 15.68 88.1733 16.3867 89.96 17.8C91.7733 19.1867 92.7733 21.1333 92.96 23.64H86.8C86.7467 22.68 86.3333 21.8933 85.56 21.28C84.8133 20.64 83.8133 20.32 82.56 20.32C81.4667 20.32 80.5867 20.6 79.92 21.16C79.28 21.72 78.96 22.5333 78.96 23.6C78.96 24.3467 79.2 24.9733 79.68 25.48C80.1867 25.96 80.8 26.36 81.52 26.68C82.2667 26.9733 83.3067 27.32 84.64 27.72C86.4533 28.2533 87.9333 28.7867 89.08 29.32C90.2267 29.8533 91.2133 30.6533 92.04 31.72C92.8667 32.7867 93.28 34.1867 93.28 35.92C93.28 37.4133 92.8933 38.8 92.12 40.08C91.3467 41.36 90.2133 42.3867 88.72 43.16C87.2267 43.9067 85.4533 44.28 83.4 44.28ZM111.255 44L103.735 34.56V44H98.135V14.4H103.735V31.24L111.175 21.84H118.455L108.695 32.96L118.535 44H111.255ZM124.334 19.2C123.348 19.2 122.521 18.8933 121.854 18.28C121.214 17.64 120.894 16.8533 120.894 15.92C120.894 14.9867 121.214 14.2133 121.854 13.6C122.521 12.96 123.348 12.64 124.334 12.64C125.321 12.64 126.134 12.96 126.774 13.6C127.441 14.2133 127.774 14.9867 127.774 15.92C127.774 16.8533 127.441 17.64 126.774 18.28C126.134 18.8933 125.321 19.2 124.334 19.2ZM127.094 21.84V44H121.494V21.84H127.094ZM138.227 14.4V44H132.627V14.4H138.227ZM149.36 14.4V44H143.76V14.4H149.36ZM163.373 44.36C161.559 44.36 159.933 44.04 158.493 43.4C157.053 42.7333 155.906 41.84 155.053 40.72C154.226 39.6 153.773 38.36 153.693 37H159.333C159.439 37.8533 159.853 38.56 160.573 39.12C161.319 39.68 162.239 39.96 163.333 39.96C164.399 39.96 165.226 39.7467 165.813 39.32C166.426 38.8933 166.733 38.3467 166.733 37.68C166.733 36.96 166.359 36.4267 165.613 36.08C164.893 35.7067 163.733 35.3067 162.133 34.88C160.479 34.48 159.119 34.0667 158.053 33.64C157.013 33.2133 156.106 32.56 155.333 31.68C154.586 30.8 154.213 29.6133 154.213 28.12C154.213 26.8933 154.559 25.7733 155.253 24.76C155.973 23.7467 156.986 22.9467 158.293 22.36C159.626 21.7733 161.186 21.48 162.973 21.48C165.613 21.48 167.719 22.1467 169.293 23.48C170.866 24.7867 171.733 26.56 171.893 28.8H166.533C166.453 27.92 166.079 27.2267 165.413 26.72C164.773 26.1867 163.906 25.92 162.813 25.92C161.799 25.92 161.013 26.1067 160.453 26.48C159.919 26.8533 159.653 27.3733 159.653 28.04C159.653 28.7867 160.026 29.36 160.773 29.76C161.519 30.1333 162.679 30.52 164.253 30.92C165.853 31.32 167.173 31.7333 168.213 32.16C169.253 32.5867 170.146 33.2533 170.893 34.16C171.666 35.04 172.066 36.2133 172.093 37.68C172.093 38.96 171.733 40.1067 171.013 41.12C170.319 42.1333 169.306 42.9333 167.973 43.52C166.666 44.08 165.133 44.36 163.373 44.36Z" fill="#196046"/>
<line y1="59.5" x2="244" y2="59.5" stroke="black"/>
</svg>
