<svg width="244" height="60" viewBox="0 0 244 60" fill="none" xmlns="http://www.w3.org/2000/svg">
<path d="M79.28 16.08V33.36C79.28 35.2533 79.7733 36.7067 80.76 37.72C81.7467 38.7067 83.1333 39.2 84.92 39.2C86.7333 39.2 88.1333 38.7067 89.12 37.72C90.1067 36.7067 90.6 35.2533 90.6 33.36V16.08H96.24V33.32C96.24 35.6933 95.72 37.7067 94.68 39.36C93.6667 40.9867 92.2933 42.2133 90.56 43.04C88.8533 43.8667 86.9467 44.28 84.84 44.28C82.76 44.28 80.8667 43.8667 79.16 43.04C77.48 42.2133 76.1467 40.9867 75.16 39.36C74.1733 37.7067 73.68 35.6933 73.68 33.32V16.08H79.28ZM107.251 16.08V44H101.651V16.08H107.251ZM127.783 6.12L116.983 51.24H111.503L122.303 6.12H127.783ZM137.757 16.08V33.36C137.757 35.2533 138.25 36.7067 139.237 37.72C140.223 38.7067 141.61 39.2 143.397 39.2C145.21 39.2 146.61 38.7067 147.597 37.72C148.583 36.7067 149.077 35.2533 149.077 33.36V16.08H154.717V33.32C154.717 35.6933 154.197 37.7067 153.157 39.36C152.143 40.9867 150.77 42.2133 149.037 43.04C147.33 43.8667 145.423 44.28 143.317 44.28C141.237 44.28 139.343 43.8667 137.637 43.04C135.957 42.2133 134.623 40.9867 133.637 39.36C132.65 37.7067 132.157 35.6933 132.157 33.32V16.08H137.757ZM176.847 44L170.807 34.6L165.327 44H159.007L167.807 29.92L158.887 16.08H165.327L171.367 25.44L176.807 16.08H183.127L174.367 30.12L183.287 44H176.847Z" fill="#196046"/>
<line y1="59.5" x2="244" y2="59.5" stroke="black"/>
</svg>
